<svg width="1875" height="856" viewBox="0 0 1875 856" fill="none" xmlns="http://www.w3.org/2000/svg">
<g clip-path="url(#clip0_39_425)">
<rect width="1875" height="856" fill="white"/>
<path d="M1334.55 379.71C1334.55 379.71 1253.93 420.78 1213.72 484.067C1173.51 547.353 1176.69 628.771 1225.55 689.206C1274.41 749.641 1367.8 741.704 1445.99 779.986C1524.19 818.269 1610.46 810.385 1647.43 729.276C1684.4 648.167 1628.65 617.854 1619.07 523.988C1609.5 430.122 1524.88 292.674 1334.55 379.71Z" fill="#92E3A9"/>
<path opacity="0.8" d="M1334.55 379.71C1334.55 379.71 1253.93 420.78 1213.72 484.067C1173.51 547.353 1176.69 628.771 1225.55 689.206C1274.41 749.641 1367.8 741.704 1445.99 779.986C1524.19 818.269 1610.46 810.385 1647.43 729.276C1684.4 648.167 1628.65 617.854 1619.07 523.988C1609.5 430.122 1524.88 292.674 1334.55 379.71Z" fill="white"/>
<path d="M1200.91 533.605C1200.91 533.605 1269.32 540.37 1303.94 582.754C1303.94 582.754 1340.55 533.65 1406.31 534.669C1422.37 515.286 1432.6 491.738 1435.8 466.769C1439 441.8 1435.04 416.435 1424.38 393.629C1413.72 370.823 1396.81 351.512 1375.6 337.946C1354.4 324.38 1329.78 317.117 1304.6 317.001C1279.43 316.886 1254.74 323.923 1233.41 337.294C1212.08 350.665 1194.99 369.819 1184.12 392.527C1173.26 415.234 1169.07 440.561 1172.04 465.559C1175.01 490.556 1185.02 514.196 1200.9 533.726L1200.91 533.605Z" fill="#92E3A9"/>
<path opacity="0.5" d="M1200.91 533.605C1200.91 533.605 1269.32 540.37 1303.94 582.754C1303.94 582.754 1340.55 533.65 1406.31 534.669C1422.37 515.286 1432.6 491.738 1435.8 466.769C1439 441.8 1435.04 416.435 1424.38 393.629C1413.72 370.823 1396.81 351.512 1375.6 337.946C1354.4 324.38 1329.78 317.117 1304.6 317.001C1279.43 316.886 1254.74 323.923 1233.41 337.294C1212.08 350.665 1194.99 369.819 1184.12 392.527C1173.26 415.234 1169.07 440.561 1172.04 465.559C1175.01 490.556 1185.02 514.196 1200.9 533.726L1200.91 533.605Z" fill="white"/>
<path d="M1301.67 326.337L1299.36 849.053H1310.92L1301.67 326.337Z" fill="#263238"/>
<path d="M1305.14 569.832C1305.14 569.832 1328.22 528.299 1369.77 515.605C1369.77 515.605 1325.91 525.989 1303.99 561.76L1305.14 569.832Z" fill="#263238"/>
<path d="M1305.14 452.136C1305.14 452.136 1328.22 410.588 1369.77 397.894C1369.77 397.894 1325.91 408.277 1303.99 444.048L1305.14 452.136Z" fill="#263238"/>
<path d="M1305.14 510.984C1305.14 510.984 1328.22 469.436 1369.77 456.742C1369.77 456.742 1325.91 467.125 1303.99 502.911L1305.14 510.984Z" fill="#263238"/>
<path d="M1301.72 482.13C1301.72 482.13 1279.45 440.582 1239.39 427.888C1239.39 427.888 1281.71 438.286 1302.86 474.057L1301.72 482.13Z" fill="#263238"/>
<path d="M1301.72 539.838C1301.72 539.838 1279.45 498.29 1239.39 485.596C1239.39 485.596 1281.71 495.979 1302.86 531.75L1301.72 539.838Z" fill="#263238"/>
<path d="M1640.59 578.345C1640.59 578.345 1699.28 584.152 1729.01 620.532C1729.01 620.532 1760.42 578.391 1816.85 579.257C1830.63 562.625 1839.4 542.421 1842.14 520.997C1844.88 499.574 1841.48 477.813 1832.34 458.246C1823.19 438.68 1808.68 422.113 1790.48 410.475C1772.29 398.837 1751.16 392.606 1729.57 392.507C1707.97 392.408 1686.79 398.446 1668.49 409.917C1650.19 421.389 1635.52 437.822 1626.2 457.304C1616.88 476.786 1613.28 498.515 1615.82 519.963C1618.37 541.41 1626.95 561.694 1640.58 578.452L1640.59 578.345Z" fill="#92E3A9"/>
<path opacity="0.5" d="M1640.59 578.345C1640.59 578.345 1699.28 584.152 1729.01 620.532C1729.01 620.532 1760.42 578.391 1816.85 579.257C1830.63 562.625 1839.4 542.421 1842.14 520.997C1844.88 499.574 1841.48 477.813 1832.34 458.246C1823.19 438.68 1808.68 422.113 1790.48 410.475C1772.29 398.837 1751.16 392.606 1729.57 392.507C1707.97 392.408 1686.79 398.446 1668.49 409.917C1650.19 421.389 1635.52 437.822 1626.2 457.304C1616.88 476.786 1613.28 498.515 1615.82 519.963C1618.37 541.41 1626.95 561.694 1640.58 578.452L1640.59 578.345Z" fill="white"/>
<path d="M1727.07 400.478L1725.09 849.053H1734.99L1727.07 400.478Z" fill="#263238"/>
<path d="M1730.03 609.434C1730.03 609.434 1749.79 573.785 1785.49 562.9C1785.49 562.9 1747.86 571.808 1729.04 602.426L1730.03 609.434Z" fill="#263238"/>
<path d="M1730.03 508.43C1730.03 508.43 1749.79 472.78 1785.49 461.88C1785.49 461.88 1747.86 470.789 1729.04 501.498L1730.03 508.43Z" fill="#263238"/>
<path d="M1730.03 558.932C1730.03 558.932 1749.79 523.282 1785.49 512.382C1785.49 512.382 1747.86 521.306 1729.04 552L1730.03 558.932Z" fill="#263238"/>
<path d="M1727.1 534.183C1727.1 534.183 1707.99 498.518 1673.58 487.633C1673.58 487.633 1709.9 496.542 1728.05 527.25L1727.1 534.183Z" fill="#263238"/>
<path d="M1727.1 583.696C1727.1 583.696 1707.99 548.047 1673.58 537.147C1673.58 537.147 1709.9 546.056 1728.05 576.764L1727.1 583.696Z" fill="#263238"/>
<path d="M1503.53 850.922C1503.74 846.164 1503.11 837.149 1497.94 823.558C1489.83 802.275 1475.65 844.842 1475.65 844.842C1475.65 844.842 1475.65 839.779 1460.45 823.558C1445.25 807.337 1432.06 835.72 1432.06 835.72C1432.06 835.72 1439.16 767.827 1421.92 772.889C1404.69 777.951 1406.72 835.72 1406.72 835.72C1406.72 835.72 1394.56 793.154 1378.35 793.154C1362.15 793.154 1358.08 823.558 1358.08 823.558C1358.08 823.558 1354.03 769.849 1337.81 768.83C1321.59 767.811 1303.41 813.434 1303.41 813.434C1303.41 813.434 1308.49 752.624 1292.26 749.584C1276.04 746.543 1269.96 771.871 1269.96 771.871C1269.96 771.871 1255.78 687.756 1228.41 697.896C1201.05 708.036 1224.36 801.272 1224.36 801.272C1224.36 801.272 1196.99 736.404 1174.64 751.606C1154.43 765.44 1180.16 837.864 1185.03 850.922H1503.53Z" fill="#92E3A9"/>
<path d="M1176.67 852.96C1176.67 852.96 1164.5 814.437 1170.58 808.356C1176.67 802.275 1203.07 828.636 1203.07 828.636C1203.07 828.636 1183.83 763.768 1214.23 755.665C1244.64 747.562 1249.64 818.496 1249.64 818.496C1249.64 818.496 1271.94 786.069 1277 798.231C1280.08 805.633 1281.82 813.525 1282.12 821.536C1282.12 821.536 1293.28 733.363 1318.61 737.422C1343.94 741.481 1320.65 828.636 1320.65 828.636C1320.65 828.636 1334.83 798.231 1351.05 801.272C1367.27 804.312 1373.34 823.558 1373.34 823.558C1373.34 823.558 1380.44 806.334 1385.5 806.334C1390.56 806.334 1396.66 836.739 1396.66 836.739C1396.66 836.739 1402.74 790.113 1413.88 792.15C1425.03 794.187 1448.29 833.698 1448.29 833.698C1448.29 833.698 1444.23 811.396 1456.39 810.393C1468.55 809.39 1475.65 844.842 1475.65 844.842C1475.65 844.842 1491.86 811.396 1502 817.477C1512.14 823.558 1507.12 856 1507.12 856" stroke="#263238" stroke-width="1.52023" stroke-linecap="round" stroke-linejoin="round"/>
<path d="M1232.41 852.959L1222.27 807.353" stroke="#263238" stroke-width="1.52023" stroke-linecap="round" stroke-linejoin="round"/>
<path d="M1294.23 850.923L1299.3 822.555" stroke="#263238" stroke-width="1.52023" stroke-linecap="round" stroke-linejoin="round"/>
<path d="M1424.97 852.959L1415.84 827.617" stroke="#263238" stroke-width="1.52023" stroke-linecap="round" stroke-linejoin="round"/>
<path d="M1343.89 851.941L1355.03 831.676" stroke="#263238" stroke-width="1.52023" stroke-linecap="round" stroke-linejoin="round"/>
<path d="M1229.37 833.698L1237.48 817.477" stroke="#263238" stroke-width="1.52023" stroke-linecap="round" stroke-linejoin="round"/>
<path d="M1294.23 841.801L1287.14 827.617" stroke="#263238" stroke-width="1.52023" stroke-linecap="round" stroke-linejoin="round"/>
<path d="M1348.95 840.798L1343.89 831.676" stroke="#263238" stroke-width="1.52023" stroke-linecap="round" stroke-linejoin="round"/>
<path d="M1420.92 839.779L1423.96 829.639" stroke="#263238" stroke-width="1.52023" stroke-linecap="round" stroke-linejoin="round"/>
<path d="M1814.54 850.922C1814.75 846.164 1814.11 837.149 1808.95 823.558C1800.84 802.275 1786.66 844.842 1786.66 844.842C1786.66 844.842 1786.66 839.779 1771.46 823.558C1756.25 807.337 1743.07 835.72 1743.07 835.72C1743.07 835.72 1750.17 767.827 1732.93 772.889C1715.69 777.951 1717.73 835.72 1717.73 835.72C1717.73 835.72 1705.57 793.154 1689.36 793.154C1673.16 793.154 1669.08 823.558 1669.08 823.558C1669.08 823.558 1665.04 769.849 1648.82 768.83C1632.6 767.811 1614.36 813.434 1614.36 813.434C1614.36 813.434 1619.43 752.624 1603.21 749.584C1586.99 746.543 1580.91 771.871 1580.91 771.871C1580.91 771.871 1566.73 687.756 1539.36 697.896C1512 708.036 1535.3 801.272 1535.3 801.272C1535.3 801.272 1507.94 736.404 1485.65 751.606C1465.37 765.425 1491.17 837.864 1496.04 850.922H1814.54Z" fill="#92E3A9"/>
<path d="M1487.67 852.96C1487.67 852.96 1475.51 814.437 1481.59 808.356C1487.67 802.275 1514.02 828.636 1514.02 828.636C1514.02 828.636 1494.77 763.768 1525.18 755.665C1555.58 747.562 1560.65 818.496 1560.65 818.496C1560.65 818.496 1582.95 786.069 1588.01 798.231C1591.07 805.637 1592.78 813.529 1593.07 821.536C1593.07 821.536 1604.23 733.363 1629.56 737.422C1654.88 741.481 1631.59 828.636 1631.59 828.636C1631.59 828.636 1645.78 798.231 1662 801.272C1678.22 804.312 1684.29 823.558 1684.29 823.558C1684.29 823.558 1691.39 806.334 1696.45 806.334C1701.51 806.334 1707.61 836.739 1707.61 836.739C1707.61 836.739 1713.69 790.113 1724.83 792.15C1735.97 794.187 1759.29 833.698 1759.29 833.698C1759.29 833.698 1755.24 811.396 1767.4 810.393C1779.56 809.39 1786.66 844.842 1786.66 844.842C1786.66 844.842 1802.86 811.396 1813 817.477C1823.14 823.558 1818.07 856 1818.07 856" stroke="#263238" stroke-width="1.52023" stroke-linecap="round" stroke-linejoin="round"/>
<path d="M1543.42 852.959L1533.28 807.353" stroke="#263238" stroke-width="1.52023" stroke-linecap="round" stroke-linejoin="round"/>
<path d="M1605.23 850.923L1610.31 822.555" stroke="#263238" stroke-width="1.52023" stroke-linecap="round" stroke-linejoin="round"/>
<path d="M1735.97 852.959L1726.85 827.617" stroke="#263238" stroke-width="1.52023" stroke-linecap="round" stroke-linejoin="round"/>
<path d="M1654.9 851.941L1666.04 831.676" stroke="#263238" stroke-width="1.52023" stroke-linecap="round" stroke-linejoin="round"/>
<path d="M1540.38 833.698L1548.48 817.477" stroke="#263238" stroke-width="1.52023" stroke-linecap="round" stroke-linejoin="round"/>
<path d="M1605.23 841.801L1598.15 827.617" stroke="#263238" stroke-width="1.52023" stroke-linecap="round" stroke-linejoin="round"/>
<path d="M1659.96 840.798L1654.9 831.676" stroke="#263238" stroke-width="1.52023" stroke-linecap="round" stroke-linejoin="round"/>
<path d="M1731.93 839.779L1734.97 829.639" stroke="#263238" stroke-width="1.52023" stroke-linecap="round" stroke-linejoin="round"/>
<path d="M1525.85 661.853C1525.85 661.853 1536.28 666.073 1544.2 666.816C1552.12 667.56 1564.3 661.853 1566.29 651.425C1568.28 640.997 1561.57 621.395 1559.34 617.176C1557.11 612.956 1543.7 583.168 1536.25 576.718C1528.81 570.268 1516.64 566.531 1514.16 565.546C1511.68 564.561 1513.42 573.985 1512.92 579.943C1512.43 585.9 1512.42 616.181 1512.42 616.181L1510.68 655.896C1510.68 655.896 1519.85 659.352 1525.85 661.853Z" fill="white"/>
<mask id="mask0_39_425" style="mask-type:luminance" maskUnits="userSpaceOnUse" x="1510" y="565" width="57" height="102">
<path d="M1525.85 661.853C1525.85 661.853 1536.28 666.073 1544.2 666.816C1552.12 667.56 1564.3 661.853 1566.29 651.425C1568.28 640.997 1561.57 621.395 1559.34 617.176C1557.11 612.956 1543.7 583.168 1536.25 576.718C1528.81 570.268 1516.64 566.531 1514.16 565.546C1511.68 564.561 1513.42 573.985 1512.92 579.943C1512.43 585.9 1512.42 616.181 1512.42 616.181L1510.68 655.896C1510.68 655.896 1519.85 659.352 1525.85 661.853Z" fill="white"/>
</mask>
<g mask="url(#mask0_39_425)">
<path d="M1561.14 621.482C1559.91 621.319 1558.66 621.242 1557.41 621.25C1555.83 617.127 1554.03 612.831 1552.12 608.698C1552.84 608.08 1553.57 607.491 1554.32 606.911L1553.44 605.125C1552.71 605.685 1551.98 606.265 1551.26 606.863C1548.71 601.387 1545.81 596.084 1542.57 590.989C1543.05 589.637 1543.53 588.392 1543.9 587.271C1543.46 586.547 1543.04 585.833 1542.61 585.147C1542.21 586.267 1541.74 587.561 1541.22 589.01C1540.1 587.335 1538.81 585.781 1537.36 584.375C1535.73 582.896 1534 581.531 1532.19 580.29C1532.77 578.224 1533.3 576.393 1533.78 574.796C1533.24 574.41 1532.68 574.033 1532.11 573.666C1531.63 575.24 1531.09 577.085 1530.5 579.161C1525.37 575.915 1519.85 573.321 1514.08 571.436L1513.51 573.28C1519.29 575.209 1524.8 577.853 1529.93 581.15C1529.17 583.95 1528.36 587.088 1527.58 590.477C1524.25 588.749 1520.66 587.55 1516.96 586.924L1516.7 588.855C1520.35 589.456 1523.87 590.629 1527.16 592.331C1526.33 596.02 1525.54 599.969 1524.86 604.053C1522.46 602.087 1519.95 600.252 1517.36 598.559L1516.32 600.191C1519.17 602.058 1521.9 604.093 1524.5 606.284C1523.87 610.291 1523.36 614.395 1523.03 618.508C1520.71 616.716 1518.25 615.102 1515.68 613.68L1514.78 615.38C1517.62 616.987 1520.33 618.828 1522.87 620.884C1522.69 623.722 1522.6 626.561 1522.64 629.342H1524.57C1524.57 627.083 1524.57 624.784 1524.71 622.467C1526.36 623.925 1527.89 625.514 1529.29 627.218C1528.96 628.589 1528.68 629.892 1528.44 631.08L1529.63 631.312C1527.7 634.064 1526.51 635.937 1526.33 636.227L1527.96 637.25L1528.7 636.111L1528.76 636.159C1528.76 636.159 1529.18 635.782 1529.87 635.193V635.406C1532.03 635.959 1534.12 636.779 1536.08 637.849L1534.15 638.737C1516.87 646.587 1512.48 647.678 1512.44 647.688L1512.87 649.571C1513.05 649.571 1517.36 648.49 1534.94 640.495C1536.03 640.005 1537.05 639.523 1538.01 639.046C1541.24 641.11 1543.76 644.121 1545.21 647.669H1545.09C1543.24 647.936 1541.42 648.375 1539.66 648.982C1534.06 651.164 1516.92 652.767 1516.75 652.786L1516.93 654.718C1517.64 654.65 1534.51 653.076 1540.37 650.797C1542.01 650.236 1543.7 649.828 1545.42 649.581L1545.83 649.503C1546.25 651.101 1546.46 652.747 1546.45 654.399C1546.45 655.502 1546.4 656.604 1546.28 657.701C1545.63 657.885 1544.98 658.049 1544.35 658.174C1540.08 658.976 1529.78 659.912 1522.68 660.501L1525.85 661.853L1526.66 662.172C1533.28 661.593 1541.06 660.83 1544.73 660.144C1545.16 660.057 1545.61 659.961 1546.04 659.854C1545.64 662.29 1544.79 664.629 1543.52 666.749L1544.23 666.816C1544.71 666.864 1545.19 666.886 1545.68 666.884C1546.92 664.5 1547.74 661.914 1548.09 659.246C1552.94 657.694 1557.14 654.602 1560.07 650.44C1560.18 650.778 1560.29 651.126 1560.36 651.473C1561.32 654.996 1560.97 658.745 1559.4 662.037C1560.48 661.216 1561.49 660.291 1562.39 659.275C1563 656.556 1562.96 653.73 1562.27 651.029C1562.04 650.07 1561.75 649.128 1561.39 648.21C1562.07 646.8 1562.57 645.307 1562.87 643.768C1563.55 640.215 1561.52 632.258 1558.22 623.24C1559.47 623.248 1560.72 623.358 1561.96 623.568C1561.63 622.815 1561.38 622.129 1561.14 621.482ZM1555.4 621.347C1553.73 621.485 1552.07 621.757 1550.45 622.158C1549.37 619.976 1547.94 617.137 1546.33 614.086C1547.71 612.676 1549.14 611.305 1550.6 609.992C1552.33 613.757 1553.96 617.62 1555.4 621.347ZM1545.26 632.683C1542.8 631.508 1540.24 630.54 1537.62 629.786C1538.85 629.043 1540.17 628.309 1541.57 627.604C1541.62 627.694 1541.66 627.788 1541.69 627.884C1541.67 627.772 1541.67 627.658 1541.69 627.546L1542.26 627.266L1542.59 627.739L1542.05 628.541L1542.75 628.975L1543.31 628.425C1543.62 628.116 1543.82 627.913 1543.31 626.774C1545.3 625.861 1547.34 625.097 1549.44 624.485C1550.04 625.711 1550.46 626.58 1550.63 626.957C1550.52 627.449 1549.85 629.468 1545.26 632.683ZM1552.23 628.27C1554.07 629.476 1555.48 631.242 1556.24 633.307C1557 635.373 1557.08 637.629 1556.46 639.741C1556.4 639.973 1556.34 640.176 1556.27 640.388C1553.63 637.67 1550.57 635.389 1547.21 633.629C1550.39 631.312 1551.71 629.497 1552.23 628.27ZM1538.82 619.416C1538.44 618.827 1538.04 618.218 1537.6 617.552C1536.78 616.311 1535.9 615.113 1534.96 613.96C1536 610.561 1537.11 607.105 1538.21 603.773C1540.14 606.854 1542.13 610.368 1543.94 613.729C1542.13 615.602 1540.42 617.523 1538.82 619.416ZM1544.91 615.553C1546.31 618.209 1547.56 620.671 1548.53 622.651C1546.42 623.286 1544.35 624.07 1542.34 624.997C1541.79 624.031 1541.01 622.795 1539.94 621.135C1541.49 619.29 1543.17 617.436 1544.91 615.563V615.553ZM1538.64 622.699C1539.52 624.08 1540.14 625.103 1540.57 625.847C1537.7 627.309 1534.95 628.984 1532.33 630.858C1534.06 628.512 1536.19 625.682 1538.64 622.708V622.699ZM1541.79 593.297C1544.73 598.098 1547.38 603.062 1549.74 608.167C1548.24 609.49 1546.78 610.87 1545.36 612.299C1543.36 608.601 1541.15 604.729 1538.99 601.446C1539.97 598.521 1540.93 595.759 1541.79 593.297ZM1531.65 582.241C1533.19 583.328 1534.67 584.508 1536.07 585.775C1537.74 587.419 1539.22 589.246 1540.48 591.221C1539.61 593.693 1538.65 596.454 1537.65 599.399C1536.47 597.63 1535.11 595.993 1533.59 594.513C1532.28 593.344 1530.87 592.299 1529.37 591.395C1530.11 588.092 1530.89 585.002 1531.65 582.241ZM1528.91 593.403C1530.11 594.15 1531.24 595 1532.29 595.942C1534.04 597.693 1535.58 599.637 1536.88 601.736C1535.74 605.144 1534.58 608.717 1533.48 612.261C1531.33 609.881 1529.02 607.642 1526.58 605.56C1527.25 601.311 1528.05 597.227 1528.9 593.403H1528.91ZM1529.88 624.881C1528.34 623.146 1526.67 621.532 1524.89 620.053C1525.17 615.949 1525.64 611.846 1526.24 607.829C1528.59 609.873 1530.79 612.08 1532.82 614.433C1531.69 618.054 1530.68 621.617 1529.86 624.881H1529.88ZM1531.36 626.918L1531.47 626.831L1531.4 626.745C1532.19 623.51 1533.19 619.928 1534.3 616.22C1534.91 617.002 1535.49 617.803 1536.02 618.614C1536.55 619.425 1537.09 620.246 1537.55 620.961C1534.86 624.215 1532.52 627.314 1530.7 629.863C1530.86 628.927 1531.1 627.932 1531.34 626.918H1531.36ZM1531.55 633.919C1532.65 633.069 1534.06 632.055 1535.69 631.022L1535.63 631.283C1538.28 631.954 1540.87 632.858 1543.36 633.986C1541.91 634.894 1540.17 635.869 1538.1 636.883C1536.03 635.641 1533.83 634.646 1531.53 633.919H1531.55ZM1539.9 638.129C1542.07 636.989 1543.89 635.927 1545.39 634.942C1549.17 636.792 1552.59 639.322 1555.46 642.406C1553.71 645.602 1550.63 646.645 1547.15 647.341C1545.69 643.622 1543.16 640.419 1539.88 638.129H1539.9ZM1548.3 657.103C1548.36 656.263 1548.4 655.384 1548.4 654.447C1548.41 652.675 1548.18 650.909 1547.73 649.194C1551.19 648.47 1554.64 647.312 1556.77 644C1557.74 645.275 1558.55 646.659 1559.19 648.123C1556.72 652.305 1552.86 655.484 1548.28 657.103H1548.3ZM1560.91 643.391C1560.75 644.216 1560.53 645.027 1560.24 645.815C1559.52 644.486 1558.67 643.228 1557.72 642.059C1557.96 641.453 1558.17 640.83 1558.33 640.195C1559.03 637.518 1558.83 634.682 1557.74 632.134C1556.66 629.587 1554.76 627.473 1552.34 626.127C1552.15 625.74 1551.82 625.007 1551.37 624.041C1552.96 623.671 1554.57 623.432 1556.2 623.326C1559.46 632.181 1561.58 640.021 1560.89 643.391H1560.91Z" fill="#CCCCCC"/>
</g>
<path d="M1525.85 661.853C1525.85 661.853 1536.28 666.073 1544.2 666.816C1552.12 667.56 1564.3 661.853 1566.29 651.425C1568.28 640.997 1561.57 621.395 1559.34 617.176C1557.11 612.956 1543.7 583.168 1536.25 576.718C1528.81 570.268 1516.64 566.531 1514.16 565.546C1511.68 564.561 1513.42 573.985 1512.92 579.943C1512.43 585.9 1512.42 616.181 1512.42 616.181L1510.68 655.896C1510.68 655.896 1519.85 659.352 1525.85 661.853Z" stroke="#263238" stroke-width="0.965585" stroke-linecap="round" stroke-linejoin="round"/>
<path d="M1538.46 629.815C1538.46 629.815 1550.14 620.874 1559.07 633.04" stroke="#263238" stroke-width="0.965585" stroke-linecap="round" stroke-linejoin="round"/>
<path d="M1455.3 499.036C1454.8 499.867 1455.06 485.653 1459.08 478.759C1460.43 476.451 1472.79 472.126 1484.74 474.897C1496.68 477.668 1501.8 483.645 1502.22 486.416C1502.65 489.187 1500.75 506.935 1500.75 506.935C1500.75 506.935 1481.53 495.84 1455.3 499.036Z" fill="#217D4D" stroke="#263238" stroke-width="0.965585" stroke-linecap="round" stroke-linejoin="round"/>
<path d="M1518.44 517.025C1519.38 507.943 1501.75 498.691 1479.07 496.359C1456.39 494.027 1437.25 499.5 1436.32 508.581C1435.39 517.663 1453.01 526.916 1475.69 529.247C1498.37 531.579 1517.51 526.107 1518.44 517.025Z" fill="#A6A6A6" stroke="#263238" stroke-width="0.965585" stroke-linecap="round" stroke-linejoin="round"/>
<path d="M1431.54 560.786C1431.54 560.786 1415.78 565.942 1408.37 572.054C1400.96 578.166 1373.94 603.271 1362.02 611.643C1350.11 620.015 1345.61 633.851 1351.73 644.154C1357.85 654.457 1369.75 657.025 1377.47 655.094C1385.2 653.163 1394.85 641.895 1403.54 636.748C1412.23 631.602 1418.99 622.264 1418.99 622.264C1418.99 622.264 1423.5 589.753 1425.11 580.097C1426.73 570.441 1432.84 562.079 1432.84 562.079C1432.84 562.079 1432.84 559.82 1431.54 560.786Z" fill="white"/>
<mask id="mask1_39_425" style="mask-type:luminance" maskUnits="userSpaceOnUse" x="1349" y="560" width="84" height="96">
<path d="M1431.54 560.786C1431.54 560.786 1415.78 565.942 1408.37 572.054C1400.96 578.166 1373.94 603.271 1362.02 611.643C1350.11 620.015 1345.61 633.851 1351.73 644.154C1357.85 654.457 1369.75 657.025 1377.47 655.094C1385.2 653.163 1394.85 641.895 1403.54 636.748C1412.23 631.602 1418.99 622.264 1418.99 622.264C1418.99 622.264 1423.5 589.753 1425.11 580.097C1426.73 570.441 1432.84 562.079 1432.84 562.079C1432.84 562.079 1432.84 559.82 1431.54 560.786Z" fill="white"/>
</mask>
<g mask="url(#mask1_39_425)">
<path d="M1415.92 578.919C1416.4 573.628 1416.89 569.331 1417.28 566.608C1416.59 566.946 1415.89 567.303 1415.21 567.67C1414.82 570.702 1414.32 575.057 1413.86 580.223C1410.75 582.279 1407.82 584.598 1405.11 587.156C1403.66 588.546 1402.02 589.956 1400.28 591.366C1400.05 586.325 1399.91 582.222 1399.83 579.518L1397.9 581.188C1397.99 584.085 1398.13 588.083 1398.37 592.775C1394.21 595.933 1389.46 599.11 1384.69 602.248C1383.81 599.428 1383.01 596.956 1382.35 594.909L1380.76 596.29C1381.42 598.299 1382.18 600.674 1383.01 603.358L1381.82 604.14C1378.14 606.545 1374.59 608.872 1371.41 611.102C1370.36 610.207 1369.22 609.418 1368.02 608.746C1367.56 608.495 1367.13 608.283 1366.7 608.099C1366.1 608.572 1365.51 609.065 1364.94 609.461C1365.72 609.742 1366.48 610.091 1367.21 610.504C1368.11 611.027 1368.98 611.624 1369.78 612.29C1367.71 613.786 1365.82 615.235 1364.22 616.616C1362.27 618.274 1360.53 620.172 1359.06 622.264C1356.67 622.054 1354.27 622.237 1351.95 622.805C1351.54 623.578 1351.18 624.36 1350.85 625.151C1353.11 624.437 1355.47 624.114 1357.84 624.195C1353.26 632.181 1353.98 641.576 1360.03 651.773C1360.12 651.917 1360.24 652.036 1360.38 652.119C1360.53 652.202 1360.7 652.246 1360.86 652.246C1361.04 652.249 1361.21 652.202 1361.36 652.111C1361.58 651.98 1361.73 651.767 1361.8 651.519C1361.86 651.271 1361.82 651.008 1361.69 650.788C1355.9 640.948 1355.34 631.968 1360.02 624.398C1360.8 624.511 1361.57 624.672 1362.33 624.881C1365.14 625.677 1367.76 627.012 1370.06 628.811C1369.78 629.274 1369.51 629.777 1369.28 630.211C1364.16 640.417 1371.64 646.79 1371.72 646.858C1371.81 646.939 1371.93 647 1372.05 647.038C1372.17 647.076 1372.3 647.089 1372.42 647.077C1372.55 647.066 1372.67 647.029 1372.78 646.97C1372.9 646.911 1373 646.83 1373.08 646.732C1373.16 646.635 1373.22 646.522 1373.26 646.401C1373.3 646.279 1373.31 646.152 1373.3 646.025C1373.29 645.899 1373.25 645.776 1373.19 645.664C1373.13 645.551 1373.05 645.452 1372.95 645.371C1372.88 645.313 1366.56 639.925 1371.02 631.08C1371.18 630.742 1371.39 630.404 1371.58 630.057C1374.66 632.871 1377.31 636.125 1379.44 639.712C1379.2 641.22 1379.34 642.763 1379.85 644.202C1379.93 644.363 1380.05 644.498 1380.2 644.592C1380.36 644.686 1380.54 644.735 1380.72 644.733C1380.87 644.736 1381.01 644.703 1381.15 644.637C1381.32 644.547 1381.46 644.406 1381.56 644.233C1381.65 644.061 1381.68 643.865 1381.66 643.671C1382.54 645.351 1383.39 647.141 1384.23 649.04C1384.31 649.213 1384.43 649.36 1384.59 649.463C1384.75 649.565 1384.93 649.62 1385.12 649.619C1385.25 649.617 1385.38 649.588 1385.5 649.532C1385.74 649.429 1385.92 649.238 1386.01 649.001C1386.1 648.764 1386.1 648.501 1386 648.268C1384.66 645.167 1383.12 642.158 1381.39 639.259C1381.7 637.265 1382.25 635.318 1383.05 633.465C1384.99 638.52 1386.64 643.677 1388.01 648.914C1388.56 648.49 1389.1 648.045 1389.65 647.592C1388.17 641.995 1386.34 636.497 1384.17 631.128C1385.5 628.685 1387.12 626.414 1389 624.369C1390.7 630.858 1392.3 637.694 1393.58 644.347L1395.28 642.937C1393.94 636.178 1392.29 629.274 1390.57 622.747C1391.38 621.955 1392.25 621.173 1393.19 620.41C1395.31 618.717 1397.54 617.169 1399.87 615.776C1400.13 618.865 1400.42 622.023 1400.75 625.19C1398.03 626.789 1395.51 628.69 1393.22 630.858C1393.04 631.039 1392.94 631.284 1392.94 631.539C1392.94 631.794 1393.04 632.039 1393.22 632.219C1393.31 632.31 1393.42 632.382 1393.53 632.431C1393.65 632.48 1393.78 632.505 1393.91 632.505C1394.03 632.505 1394.16 632.48 1394.28 632.431C1394.39 632.382 1394.5 632.31 1394.59 632.219C1396.54 630.365 1398.68 628.727 1400.98 627.334C1401.35 630.79 1401.77 634.257 1402.24 637.665C1402.67 637.376 1403.12 637.096 1403.55 636.835L1404.02 636.536C1403.57 633.127 1403.16 629.67 1402.8 626.223C1406.18 624.267 1409.66 622.482 1413.23 620.874C1413.43 623.365 1413.7 625.818 1414.04 628.193C1414.65 627.546 1415.22 626.918 1415.74 626.339C1415.48 624.282 1415.25 622.177 1415.09 620.034C1416.73 619.31 1418.27 618.663 1419.59 618.103C1419.69 617.417 1419.79 616.683 1419.91 615.882C1418.5 616.442 1416.81 617.137 1414.95 617.948C1414.74 614.733 1414.64 611.469 1414.6 608.205C1417.1 607.095 1419.43 606.129 1421.36 605.309C1421.45 604.575 1421.56 603.841 1421.67 603.088C1419.67 603.88 1417.22 604.874 1414.55 606.043C1414.55 602.711 1414.62 599.399 1414.74 596.184C1418.18 594.098 1421.11 592.37 1423.43 591.008C1423.56 590.168 1423.68 589.348 1423.8 588.556C1421.53 589.879 1418.52 591.665 1414.86 593.866C1415.07 589.434 1415.36 585.176 1415.69 581.42C1419.11 579.209 1422.66 577.194 1426.31 575.385C1426.59 574.478 1426.9 573.609 1427.23 572.759C1423.34 574.595 1419.57 576.652 1415.92 578.919ZM1398.48 595.228C1398.62 597.864 1398.78 600.693 1398.97 603.658C1394.73 606.351 1390.88 608.91 1387.39 611.382C1386.65 608.862 1385.94 606.467 1385.25 604.256C1389.85 601.253 1394.41 598.212 1398.48 595.228ZM1382.87 605.849C1383.12 605.695 1383.36 605.531 1383.6 605.367C1384.3 607.626 1385.02 610.05 1385.77 612.608C1383.07 614.605 1380.49 616.756 1378.04 619.049C1376.56 616.698 1374.83 614.516 1372.87 612.541C1375.93 610.378 1379.34 608.138 1382.87 605.849ZM1371.06 627.092C1368.61 625.197 1365.83 623.788 1362.85 622.94C1362.31 622.795 1361.78 622.68 1361.26 622.573C1362.5 620.92 1363.92 619.408 1365.49 618.064C1367.12 616.654 1369.09 615.167 1371.28 613.603C1373.33 615.632 1375.13 617.902 1376.64 620.362C1374.55 622.408 1372.68 624.663 1371.06 627.092ZM1379.91 636.864C1377.86 633.698 1375.4 630.823 1372.58 628.319C1374.06 626.069 1375.77 623.976 1377.67 622.071C1379.33 624.94 1380.8 627.918 1382.06 630.984C1381.13 632.872 1380.41 634.857 1379.91 636.903V636.864ZM1383.22 628.84C1382 626.054 1380.62 623.342 1379.08 620.719C1381.39 618.549 1383.82 616.508 1386.35 614.607C1387.04 617.012 1387.73 619.512 1388.42 622.091C1386.42 624.137 1384.67 626.416 1383.22 628.879V628.84ZM1391.96 618.788C1391.27 619.348 1390.62 619.918 1390.03 620.497C1389.37 618.035 1388.7 615.669 1388.03 613.323C1391.38 610.861 1395.1 608.36 1399.16 605.772C1399.32 608.276 1399.51 610.851 1399.73 613.497C1397.01 615.084 1394.42 616.865 1391.96 618.827V618.788ZM1400.97 604.594L1403.2 603.194C1406.7 601.025 1409.9 599.058 1412.8 597.294C1412.7 600.413 1412.64 603.609 1412.66 606.825C1409.07 608.447 1405.22 610.339 1401.53 612.425C1401.29 609.779 1401.14 607.163 1400.97 604.633V604.594ZM1402.58 623.983C1402.25 620.806 1401.97 617.649 1401.71 614.559C1405.29 612.502 1409.1 610.6 1412.68 608.968C1412.68 612.222 1412.84 615.476 1413.06 618.682C1409.72 620.227 1406.02 622.033 1402.58 624.022V623.983ZM1412.89 595.016C1409.71 596.947 1406.13 599.129 1402.19 601.582L1400.83 602.431C1400.64 599.361 1400.48 596.454 1400.35 593.741C1402.47 592.118 1404.5 590.387 1406.45 588.556C1408.7 586.446 1411.11 584.51 1413.65 582.762C1413.34 586.538 1413.07 590.69 1412.88 595.025L1412.89 595.016Z" fill="#CCCCCC"/>
</g>
<path d="M1431.54 560.786C1431.54 560.786 1415.78 565.942 1408.37 572.054C1400.96 578.166 1373.94 603.271 1362.02 611.643C1350.11 620.015 1345.61 633.851 1351.73 644.154C1357.85 654.457 1369.75 657.025 1377.47 655.094C1385.2 653.163 1394.85 641.895 1403.54 636.748C1412.23 631.602 1418.99 622.264 1418.99 622.264C1418.99 622.264 1423.5 589.753 1425.11 580.097C1426.73 570.441 1432.84 562.079 1432.84 562.079C1432.84 562.079 1432.84 559.82 1431.54 560.786Z" stroke="#263238" stroke-width="0.965585" stroke-linecap="round" stroke-linejoin="round"/>
<path d="M1360.42 634.498C1358.3 634.34 1356.18 634.812 1354.32 635.855C1352.47 636.898 1350.97 638.465 1350 640.359C1350.44 641.682 1351.02 642.954 1351.73 644.154C1354.54 648.889 1358.94 652.469 1364.15 654.254C1368.85 652.439 1372.32 649.069 1372.32 646.085C1372.32 642.223 1370.71 634.817 1360.42 634.498Z" fill="white" stroke="#263238" stroke-width="0.965585" stroke-linecap="round" stroke-linejoin="round"/>
<path d="M1425.43 816.569L1414.02 827.19C1410.31 830.637 1406.85 833.824 1406.85 836.209C1406.85 838.594 1405.53 841.78 1407.38 843.373C1409.24 844.967 1417.74 846.83 1425.96 846.83C1432.4 846.723 1438.59 844.377 1443.49 840.197C1446.66 837.541 1446.94 834.085 1450.38 832.472C1453.83 830.86 1459.94 831.149 1461 827.171C1462.07 823.193 1460.47 817.081 1460.47 817.081L1425.43 816.569Z" fill="#878787" stroke="#263238" stroke-width="0.965585" stroke-linecap="round" stroke-linejoin="round"/>
<path d="M1460.98 827.19C1461.23 826.176 1461.35 825.135 1461.34 824.091C1457.33 827.354 1448.94 830.753 1446.36 833.042C1443.34 835.707 1440.68 842.427 1425.72 843.238C1413.17 843.924 1407.93 840.226 1406.53 838.99C1406.29 840.689 1406.18 842.36 1407.37 843.374C1409.23 844.967 1417.72 846.83 1425.94 846.83C1432.38 846.723 1438.58 844.377 1443.47 840.197C1446.65 837.541 1446.92 834.085 1450.36 832.472C1453.81 830.86 1459.92 831.169 1460.98 827.19Z" fill="#263238" stroke="#263238" stroke-width="0.965585" stroke-linecap="round" stroke-linejoin="round"/>
<path d="M1510.4 816.569L1521.82 827.19C1525.53 830.637 1528.98 833.824 1528.98 836.209C1528.98 838.594 1530.3 841.78 1528.45 843.373C1526.6 844.967 1518.1 846.83 1509.87 846.83C1503.44 846.723 1497.25 844.377 1492.36 840.197C1489.17 837.541 1488.91 834.085 1485.45 832.472C1482 830.86 1475.9 831.149 1474.83 827.171C1473.76 823.193 1475.36 817.081 1475.36 817.081L1510.4 816.569Z" fill="#878787" stroke="#263238" stroke-width="0.965585" stroke-linecap="round" stroke-linejoin="round"/>
<path d="M1474.83 827.19C1474.58 826.176 1474.46 825.135 1474.46 824.091C1478.48 827.354 1486.86 830.753 1489.45 833.042C1492.47 835.707 1495.14 842.427 1510.08 843.238C1522.64 843.924 1527.88 840.226 1529.28 838.99C1529.51 840.689 1529.63 842.36 1528.44 843.374C1526.59 844.967 1518.09 846.83 1509.86 846.83C1503.43 846.723 1497.24 844.377 1492.35 840.197C1489.16 837.541 1488.9 834.085 1485.44 832.472C1481.99 830.86 1475.89 831.169 1474.83 827.19Z" fill="#263238" stroke="#263238" stroke-width="0.965585" stroke-linecap="round" stroke-linejoin="round"/>
<path d="M1464.54 551.777C1464.54 551.777 1439.64 558.71 1432.88 560.641C1426.12 562.572 1422.53 576.882 1421.57 593.297C1420.6 609.712 1415.78 667.647 1415.29 670.061C1414.81 672.475 1409.32 694.683 1410.76 702.408C1412.21 710.132 1425.91 802.829 1425.91 802.829C1425.91 802.829 1422.05 808.622 1423.02 810.07C1423.98 811.519 1424.47 818.761 1424.47 818.761C1424.47 818.761 1436.54 823.106 1444.26 823.106C1451.99 823.106 1461.64 820.209 1461.64 820.209C1461.64 820.209 1459.23 802.346 1460.19 791.724C1461.16 781.103 1461.16 711.581 1461.16 711.581L1470.81 821.658C1470.81 821.658 1482.4 825.037 1492.54 824.554C1502.68 824.071 1513.3 818.278 1513.3 818.278C1513.3 818.278 1514.75 810.07 1513.78 806.208C1512.82 802.346 1507.02 795.587 1507.02 793.173C1507.02 790.759 1511.85 710.132 1511.85 710.132C1511.85 710.132 1514.75 687.441 1514.27 675.854C1513.78 664.267 1514.75 637.231 1514.75 637.231C1514.75 637.231 1516.68 612.608 1518.13 598.607C1519.58 584.606 1519.98 572.054 1519.5 569.157C1519.02 566.26 1495.44 556.605 1489.64 554.673C1483.85 552.742 1471.78 552.259 1464.54 551.777Z" fill="white"/>
<mask id="mask2_39_425" style="mask-type:luminance" maskUnits="userSpaceOnUse" x="1410" y="551" width="110" height="274">
<path d="M1464.54 551.777C1464.54 551.777 1439.64 558.71 1432.88 560.641C1426.12 562.572 1422.53 576.882 1421.57 593.297C1420.6 609.712 1415.78 667.647 1415.29 670.061C1414.81 672.475 1409.32 694.683 1410.76 702.408C1412.21 710.132 1425.91 802.829 1425.91 802.829C1425.91 802.829 1422.05 808.622 1423.02 810.07C1423.98 811.519 1424.47 818.761 1424.47 818.761C1424.47 818.761 1436.54 823.106 1444.26 823.106C1451.99 823.106 1461.64 820.209 1461.64 820.209C1461.64 820.209 1459.23 802.346 1460.19 791.724C1461.16 781.103 1461.16 711.581 1461.16 711.581L1470.81 821.658C1470.81 821.658 1482.4 825.037 1492.54 824.554C1502.68 824.071 1513.3 818.278 1513.3 818.278C1513.3 818.278 1514.75 810.07 1513.78 806.208C1512.82 802.346 1507.02 795.587 1507.02 793.173C1507.02 790.759 1511.85 710.132 1511.85 710.132C1511.85 710.132 1514.75 687.441 1514.27 675.854C1513.78 664.267 1514.75 637.231 1514.75 637.231C1514.75 637.231 1516.68 612.608 1518.13 598.607C1519.58 584.606 1519.98 572.054 1519.5 569.157C1519.02 566.26 1495.44 556.605 1489.64 554.673C1483.85 552.742 1471.78 552.259 1464.54 551.777Z" fill="white"/>
</mask>
<g mask="url(#mask2_39_425)">
<path d="M1517.74 602.46C1515.91 601.649 1514.02 600.896 1512.07 600.201L1512.76 589.068C1514.36 589.792 1516.95 590.815 1518.55 591.636L1518.46 589.705C1516.63 588.746 1514.78 587.857 1512.91 587.04L1513.7 574.4C1515.63 575.308 1517.46 576.274 1519.29 577.297L1519.67 576.621C1519.67 576.177 1519.67 575.742 1519.67 575.327C1517.74 574.246 1515.78 573.242 1513.8 572.315L1514.27 565.295C1513.67 564.976 1513.05 564.658 1512.39 564.329L1511.95 571.494C1509.26 570.316 1506.53 569.273 1503.76 568.346L1504.88 560.824L1503.06 560.023L1501.9 567.747C1496.94 566.195 1491.89 564.973 1486.78 564.088L1487.99 554.258C1487.4 554.113 1486.77 553.969 1486.06 553.843L1484.83 563.76C1479.47 562.906 1474.07 562.339 1468.64 562.06L1469.61 552.153L1467.68 552.037L1466.71 561.964C1461.45 561.751 1456.35 561.78 1451.54 561.964C1451.72 559.453 1451.87 557.213 1452 555.32L1450.03 555.871C1449.9 557.676 1449.75 559.733 1449.6 562.05C1444.43 562.311 1439.63 562.755 1435.33 563.267C1435.54 562.05 1435.74 560.901 1435.94 559.82L1433.87 560.399C1433.7 561.365 1433.51 562.417 1433.33 563.508C1431.6 563.731 1429.98 563.962 1428.45 564.204C1427.98 564.86 1427.55 565.547 1427.17 566.26C1428.96 565.98 1430.91 565.681 1432.96 565.411C1432.3 569.447 1431.62 574.101 1431.03 579.267C1427.87 579.75 1425.15 580.232 1422.93 580.667C1422.82 581.311 1422.71 581.987 1422.61 582.695C1424.79 582.26 1427.56 581.729 1430.79 581.256C1430.4 584.558 1430.04 588.063 1429.71 591.752C1426.59 591.906 1423.92 592.08 1421.64 592.235C1421.64 592.582 1421.64 592.92 1421.57 593.258C1421.5 593.596 1421.57 593.866 1421.51 594.224C1423.72 594.06 1426.43 593.886 1429.54 593.731C1427.94 612.446 1427.76 631.255 1429.01 649.996L1430.95 649.861C1429.7 631.132 1429.88 612.335 1431.5 593.635C1436.16 593.432 1441.6 593.287 1447.51 593.297C1446.45 609.49 1445.4 626.571 1444.86 638.003L1446.79 638.1C1447.33 626.648 1448.38 609.528 1449.45 593.297C1453.94 593.297 1458.68 593.451 1463.54 593.712L1459.82 630.955L1461.75 631.148L1465.47 593.857C1470.55 594.156 1475.75 594.61 1480.92 595.247L1477.42 623.452L1479.35 623.693L1482.86 595.498C1487.76 596.155 1492.64 596.985 1497.34 598.038L1492.38 631.35L1494.31 631.63L1499.26 598.472C1502.99 599.361 1506.61 600.403 1510.07 601.572L1507.8 638.467L1509.73 638.592L1511.98 602.238C1513.91 602.94 1515.78 603.703 1517.58 604.527C1517.62 603.793 1517.67 603.117 1517.74 602.46ZM1486.51 565.932C1491.61 566.826 1496.65 568.058 1501.59 569.621L1499.66 582.231C1494.79 580.841 1489.84 579.748 1484.84 578.958L1486.51 565.932ZM1447.64 591.366C1441.76 591.366 1436.34 591.501 1431.67 591.704C1432.01 587.938 1432.39 584.365 1432.79 580.995C1437.31 580.348 1442.61 579.75 1448.44 579.383C1448.16 583.235 1447.89 587.262 1447.64 591.366ZM1448.61 577.452C1442.81 577.809 1437.58 578.417 1433.07 579.016C1433.72 573.84 1434.4 569.205 1435.07 565.189C1439.39 564.667 1444.27 564.223 1449.55 563.933C1449.19 567.941 1448.89 572.527 1448.55 577.452H1448.61ZM1515.89 623.23C1482.87 607.607 1437.12 608.408 1420.44 609.325C1420.39 609.969 1420.34 610.613 1420.29 611.257C1436.71 610.291 1482.89 609.422 1515.71 625.267C1515.77 624.64 1515.83 623.954 1515.89 623.23ZM1463.75 591.771C1458.85 591.51 1454.09 591.385 1449.58 591.346C1449.85 587.194 1450.12 583.129 1450.38 579.238C1455 578.996 1459.91 578.9 1465.02 579.045L1463.75 591.771ZM1465.21 577.123C1460.09 576.978 1455.15 577.075 1450.52 577.307C1450.85 572.392 1451.16 567.805 1451.44 563.789C1456.26 563.595 1461.3 563.557 1466.55 563.789L1465.21 577.123ZM1481.16 593.297C1475.96 592.65 1470.75 592.196 1465.66 591.897L1466.95 579.132C1472.24 579.334 1477.52 579.814 1482.76 580.57L1481.16 593.297ZM1467.13 577.21L1468.46 563.895C1473.87 564.173 1479.26 564.741 1484.6 565.594L1482.98 578.659C1477.72 577.907 1472.43 577.427 1467.13 577.22V577.21ZM1497.63 596.087C1492.89 595.035 1487.97 594.156 1483.08 593.548L1484.65 580.86C1489.64 581.646 1494.57 582.746 1499.41 584.153L1497.63 596.087ZM1510.18 599.534C1506.75 598.385 1503.19 597.381 1499.56 596.522L1501.33 584.713C1504.58 585.721 1507.78 586.894 1510.92 588.227L1510.18 599.534ZM1511 586.19C1507.91 584.903 1504.76 583.766 1501.57 582.782L1503.44 570.229C1506.27 571.188 1509.06 572.279 1511.79 573.502L1511 586.19Z" fill="#CCCCCC"/>
</g>
<path d="M1464.54 551.777C1464.54 551.777 1439.64 558.71 1432.88 560.641C1426.12 562.572 1422.53 576.882 1421.57 593.297C1420.6 609.712 1415.78 667.647 1415.29 670.061C1414.81 672.475 1409.32 694.683 1410.76 702.408C1412.21 710.132 1425.91 802.829 1425.91 802.829C1425.91 802.829 1422.05 808.622 1423.02 810.071C1423.98 811.519 1424.47 818.761 1424.47 818.761C1424.47 818.761 1436.54 823.106 1444.26 823.106C1451.99 823.106 1461.64 820.209 1461.64 820.209C1461.64 820.209 1459.23 802.346 1460.19 791.724C1461.16 781.103 1461.16 711.581 1461.16 711.581L1470.81 821.658C1470.81 821.658 1482.4 825.037 1492.54 824.554C1502.68 824.071 1513.3 818.278 1513.3 818.278C1513.3 818.278 1514.75 810.071 1513.78 806.208C1512.82 802.346 1507.02 795.587 1507.02 793.173C1507.02 790.759 1511.85 710.132 1511.85 710.132C1511.85 710.132 1514.75 687.441 1514.27 675.854C1513.78 664.267 1514.75 637.231 1514.75 637.231C1514.75 637.231 1516.68 612.608 1518.13 598.607C1519.58 584.606 1519.98 572.054 1519.5 569.157C1519.02 566.26 1495.44 556.605 1489.64 554.673C1483.85 552.742 1471.78 552.259 1464.54 551.777Z" stroke="#263238" stroke-width="0.965585" stroke-linecap="round" stroke-linejoin="round"/>
<path d="M1466.84 568.298L1462.76 607.462" stroke="#263238" stroke-width="0.965585" stroke-linecap="round" stroke-linejoin="round"/>
<path d="M1461.16 711.581L1470.81 821.658C1470.81 821.658 1482.4 825.037 1492.54 824.554C1502.68 824.071 1513.3 818.278 1513.3 818.278C1513.3 818.278 1514.75 810.07 1513.78 806.208C1512.82 802.346 1507.02 795.587 1507.02 793.173C1507.02 790.759 1511.85 710.132 1511.85 710.132C1511.85 710.132 1514.75 687.441 1514.27 675.854C1514.21 674.57 1514.18 673.083 1514.16 671.48C1513.19 668.381 1508.75 654.1 1505.27 639.094C1501.33 622.129 1497.17 605.791 1497.17 605.791L1438.27 600.963C1435.55 600.355 1435.25 603.387 1435.25 603.387L1417.21 648.77C1416.25 660.357 1415.43 669.23 1415.28 670.148C1414.81 672.475 1409.32 694.683 1410.76 702.408C1412.21 710.132 1425.91 802.829 1425.91 802.829C1425.91 802.829 1422.05 808.622 1423.02 810.07C1423.98 811.519 1424.47 818.761 1424.47 818.761C1424.47 818.761 1436.54 823.106 1444.26 823.106C1451.99 823.106 1461.64 820.209 1461.64 820.209C1461.64 820.209 1459.23 802.346 1460.19 791.724C1461.16 781.103 1461.16 711.581 1461.16 711.581Z" fill="#217D4D" stroke="#263238" stroke-width="0.965585" stroke-linecap="round" stroke-linejoin="round"/>
<path d="M1444.39 612.435L1484.33 616.374L1483.79 641.19C1483.77 642.241 1483.52 643.275 1483.05 644.217C1482.59 645.16 1481.92 645.989 1481.1 646.645L1463.5 660.714C1462.42 661.579 1461.05 661.993 1459.67 661.871C1458.3 661.748 1457.02 661.099 1456.11 660.057L1441.2 642.957C1440.48 642.13 1439.96 641.151 1439.68 640.094C1439.4 639.037 1439.36 637.929 1439.57 636.854L1444.39 612.435Z" stroke="#263238" stroke-width="0.965585" stroke-linecap="round" stroke-linejoin="round"/>
<path d="M1447.72 675.14C1447.72 675.14 1459.23 678.77 1474.68 675.738" stroke="#263238" stroke-width="0.965585" stroke-linecap="round" stroke-linejoin="round"/>
<path d="M1457.71 679.678L1457.41 704.213L1458.09 703.624C1459.4 702.47 1460.48 701.062 1461.24 699.484C1462 697.906 1462.43 696.191 1462.51 694.442L1463.17 680.586" stroke="#263238" stroke-width="0.965585" stroke-linecap="round" stroke-linejoin="round"/>
<path d="M1448.92 707.854L1466.19 712.392" stroke="#263238" stroke-width="0.965585" stroke-linecap="round" stroke-linejoin="round"/>
<path d="M1457.01 547.673C1457.01 547.673 1452.53 554.075 1452.31 560.477C1452.1 566.878 1449.54 574.96 1452.31 575.404C1455.08 575.849 1464.87 567.081 1467.89 567.728C1470.91 568.375 1479.19 578.601 1481.11 578.349C1483.03 578.098 1486.66 570.036 1486.66 560.863C1486.66 551.69 1486.01 549.768 1480.87 546.785C1475.72 543.801 1463.83 540.634 1457.01 547.673Z" fill="white" stroke="#263238" stroke-width="0.965585" stroke-linecap="round" stroke-linejoin="round"/>
<path d="M1460.41 551.516C1460.41 551.516 1461.91 564.957 1466.6 567.294C1471.3 569.63 1480.47 554.924 1481.53 554.287C1482.59 553.65 1469.85 555.571 1460.41 551.516Z" fill="#CCCCCC" stroke="#263238" stroke-width="0.965585" stroke-linecap="round" stroke-linejoin="round"/>
<path d="M1497.45 530.003C1497.45 530.003 1501.37 525.281 1503.25 528.072C1505.12 530.862 1503.04 536.173 1500.69 538.944C1499.42 540.55 1497.59 541.619 1495.56 541.937L1497.45 530.003Z" fill="white" stroke="#263238" stroke-width="0.965585" stroke-linecap="round" stroke-linejoin="round"/>
<path d="M1453.38 525.281C1453.38 525.281 1449.12 520.154 1447.58 524.634C1446.05 529.114 1451.21 537.013 1451.85 537.013H1452.49L1453.38 525.281Z" fill="white" stroke="#263238" stroke-width="0.965585" stroke-linecap="round" stroke-linejoin="round"/>
<path d="M1454.79 509.909C1454.79 509.909 1451.35 537.824 1453.7 544.67C1456.06 551.516 1465.29 557.985 1473.89 557.551C1482.5 557.116 1490.43 552.829 1493.21 549.826C1495.98 546.823 1499.65 511.811 1499.65 511.811C1499.65 511.811 1490.42 506.867 1475.81 505.371C1461.2 503.874 1454.79 509.909 1454.79 509.909Z" fill="white" stroke="#263238" stroke-width="0.965585" stroke-linecap="round" stroke-linejoin="round"/>
<path d="M1484.64 523.89C1484.64 523.991 1484.62 524.089 1484.56 524.173C1484.51 524.257 1484.43 524.323 1484.34 524.362C1484.24 524.401 1484.14 524.412 1484.04 524.393C1483.95 524.374 1483.86 524.326 1483.78 524.255C1483.71 524.184 1483.67 524.094 1483.65 523.996C1483.63 523.897 1483.64 523.796 1483.68 523.703C1483.72 523.611 1483.78 523.533 1483.87 523.479C1483.95 523.424 1484.05 523.396 1484.15 523.398C1484.28 523.398 1484.4 523.45 1484.5 523.542C1484.59 523.635 1484.64 523.76 1484.64 523.89Z" fill="white" stroke="#263238" stroke-width="0.482792" stroke-linecap="round" stroke-linejoin="round"/>
<path d="M1490.56 523.06C1490.56 523.16 1490.53 523.259 1490.48 523.343C1490.43 523.427 1490.35 523.493 1490.25 523.532C1490.16 523.571 1490.06 523.582 1489.96 523.563C1489.86 523.544 1489.77 523.496 1489.7 523.425C1489.63 523.354 1489.58 523.264 1489.57 523.165C1489.55 523.067 1489.56 522.965 1489.6 522.873C1489.64 522.781 1489.7 522.703 1489.79 522.648C1489.87 522.594 1489.97 522.566 1490.07 522.568C1490.2 522.568 1490.32 522.62 1490.42 522.712C1490.51 522.804 1490.56 522.93 1490.56 523.06Z" fill="white" stroke="#263238" stroke-width="0.482792" stroke-linecap="round" stroke-linejoin="round"/>
<path d="M1489.95 526.382C1489.97 526.456 1489.98 526.535 1489.96 526.612C1489.95 526.688 1489.92 526.76 1489.87 526.822C1489.82 526.884 1489.76 526.934 1489.69 526.969C1489.62 527.004 1489.55 527.022 1489.47 527.022C1489.39 527.022 1489.31 527.004 1489.24 526.969C1489.18 526.934 1489.11 526.884 1489.07 526.822C1489.02 526.76 1488.99 526.688 1488.98 526.612C1488.96 526.535 1488.96 526.456 1488.99 526.382C1488.96 526.307 1488.96 526.228 1488.98 526.152C1488.99 526.076 1489.02 526.003 1489.07 525.941C1489.11 525.879 1489.18 525.829 1489.24 525.794C1489.31 525.76 1489.39 525.742 1489.47 525.742C1489.55 525.742 1489.62 525.76 1489.69 525.794C1489.76 525.829 1489.82 525.879 1489.87 525.941C1489.92 526.003 1489.95 526.076 1489.96 526.152C1489.98 526.228 1489.97 526.307 1489.95 526.382Z" fill="white" stroke="#263238" stroke-width="0.482792" stroke-linecap="round" stroke-linejoin="round"/>
<path d="M1465.17 521.177C1465.16 521.277 1465.19 521.376 1465.25 521.46C1465.3 521.544 1465.38 521.61 1465.47 521.649C1465.56 521.688 1465.66 521.699 1465.76 521.68C1465.86 521.661 1465.95 521.613 1466.02 521.542C1466.09 521.471 1466.14 521.381 1466.16 521.282C1466.18 521.184 1466.17 521.082 1466.13 520.99C1466.09 520.898 1466.02 520.82 1465.94 520.765C1465.86 520.711 1465.76 520.683 1465.66 520.685C1465.53 520.685 1465.4 520.737 1465.31 520.829C1465.22 520.921 1465.17 521.047 1465.17 521.177Z" fill="white" stroke="#263238" stroke-width="0.482792" stroke-linecap="round" stroke-linejoin="round"/>
<path d="M1459.23 520.347C1459.23 520.447 1459.25 520.545 1459.31 520.629C1459.36 520.713 1459.44 520.779 1459.53 520.819C1459.62 520.858 1459.73 520.868 1459.82 520.849C1459.92 520.83 1460.01 520.782 1460.08 520.712C1460.15 520.641 1460.2 520.55 1460.22 520.452C1460.24 520.354 1460.23 520.252 1460.19 520.16C1460.15 520.068 1460.09 519.989 1460 519.935C1459.92 519.881 1459.82 519.853 1459.72 519.854C1459.59 519.854 1459.46 519.906 1459.37 519.999C1459.28 520.091 1459.23 520.216 1459.23 520.347Z" fill="white" stroke="#263238" stroke-width="0.482792" stroke-linecap="round" stroke-linejoin="round"/>
<path d="M1459.85 523.668C1459.85 523.769 1459.88 523.867 1459.94 523.951C1459.99 524.035 1460.07 524.101 1460.16 524.14C1460.25 524.179 1460.35 524.19 1460.45 524.171C1460.55 524.152 1460.64 524.104 1460.71 524.033C1460.78 523.962 1460.83 523.872 1460.85 523.774C1460.87 523.675 1460.86 523.574 1460.82 523.481C1460.78 523.389 1460.71 523.311 1460.63 523.257C1460.55 523.202 1460.45 523.174 1460.35 523.176C1460.22 523.176 1460.09 523.228 1460 523.32C1459.91 523.413 1459.85 523.538 1459.85 523.668Z" fill="white" stroke="#263238" stroke-width="0.482792" stroke-linecap="round" stroke-linejoin="round"/>
<path d="M1498.26 511.328C1496.95 513.685 1496.34 516.363 1496.49 519.053C1496.83 521.813 1497.34 524.548 1498.03 527.241L1497.45 529.974L1499.67 511.811L1498.26 511.328Z" fill="#263238" stroke="#263238" stroke-width="0.965585" stroke-linecap="round" stroke-linejoin="round"/>
<path d="M1456.64 509.117C1456.88 511.619 1456.88 514.137 1456.64 516.639C1456.14 518.649 1455.24 520.536 1453.98 522.181L1453.38 525.281L1454.79 509.909L1456.64 509.117Z" fill="#263238" stroke="#263238" stroke-width="0.965585" stroke-linecap="round" stroke-linejoin="round"/>
<path d="M1471.72 517.807C1471.72 517.807 1468.95 528.052 1469.38 529.114C1469.8 530.177 1473.43 531.046 1476.41 530.611C1479.4 530.177 1478.54 517.595 1478.54 517.595" stroke="#263238" stroke-width="0.965585" stroke-linecap="round" stroke-linejoin="round"/>
<path d="M1483.88 519.092C1483.88 519.092 1486.87 516.958 1490.92 519.729" stroke="#263238" stroke-width="0.965585" stroke-linecap="round" stroke-linejoin="round"/>
<path d="M1461.27 517.17C1462.14 516.554 1463.19 516.259 1464.25 516.337C1465.31 516.415 1466.3 516.86 1467.07 517.595" stroke="#263238" stroke-width="0.965585" stroke-linecap="round" stroke-linejoin="round"/>
<path d="M1470.23 509.291C1470.23 509.291 1462.76 508.432 1459.14 511.637" stroke="#263238" stroke-width="2.89675" stroke-linecap="round" stroke-linejoin="round"/>
<path d="M1482.4 511.628C1482.4 511.628 1489.44 509.919 1493.5 515.49" stroke="#263238" stroke-width="2.89675" stroke-linecap="round" stroke-linejoin="round"/>
<path d="M1494.95 533.807C1493.47 536.578 1489.62 539.601 1489.62 539.601C1489.62 539.601 1489.84 531.876 1487.06 531.49C1484.29 531.103 1474.26 531.702 1469.36 530.003C1469.36 530.003 1459.55 528.506 1459.12 530.64C1458.7 532.774 1457.62 537.892 1457.62 537.892C1457.62 537.892 1456.77 538.316 1455.28 534.483C1454.32 531.844 1453.63 529.113 1453.23 526.333C1452.75 533.73 1452.58 541.522 1453.68 544.68C1456.05 551.555 1465.27 557.995 1473.88 557.561C1482.48 557.126 1490.42 552.839 1493.19 549.836C1494.57 548.349 1496.16 539.021 1497.42 529.983C1496.49 531.19 1495.67 532.469 1494.95 533.807ZM1482.8 543.405C1481.12 544.371 1478.11 544.612 1474.89 544.429C1473.84 540.856 1473.4 541.271 1470.64 541.271C1468.8 541.271 1468.65 542.681 1468.71 543.627C1466.72 543.276 1464.78 542.702 1462.92 541.918C1458.86 539.987 1462.27 534.879 1462.27 534.879C1468.46 537.225 1483.6 536.366 1483.6 536.366C1483.6 536.366 1486.87 541.059 1482.82 543.405H1482.8Z" fill="#263238" stroke="#263238" stroke-width="0.965585" stroke-linecap="round" stroke-linejoin="round"/>
<path d="M1435.3 603.349C1435.3 603.349 1436.21 610.919 1438.02 611.228C1439.84 611.537 1441.66 602.74 1441.66 602.74C1441.66 602.74 1436.82 603.349 1435.3 603.349Z" stroke="#263238" stroke-width="0.965585" stroke-linecap="round" stroke-linejoin="round"/>
<path d="M1490.81 605.27C1490.81 605.27 1490.38 612.888 1492.11 613.506C1493.85 614.124 1497.17 605.782 1497.17 605.782C1497.17 605.782 1492.3 605.54 1490.81 605.27Z" stroke="#263238" stroke-width="0.965585" stroke-linecap="round" stroke-linejoin="round"/>
<path d="M1437.98 557.918C1437.98 557.918 1434.12 596.078 1434.12 600.625C1434.12 605.173 1440.78 607.587 1442.61 600.017C1444.43 592.447 1448.06 556.402 1448.06 556.402C1448.06 556.402 1442.26 555.793 1437.98 557.918Z" fill="#217D4D" stroke="#263238" stroke-width="0.965585" stroke-linecap="round" stroke-linejoin="round"/>
<path d="M1497.09 557.309C1497.09 557.309 1488.3 603.658 1490.13 605.772C1491.95 607.887 1495.57 610.919 1498.9 604.565C1502.23 598.212 1508.3 560.94 1508.3 560.94C1508.3 560.94 1502.23 557.57 1497.09 557.309Z" fill="#217D4D" stroke="#263238" stroke-width="0.965585" stroke-linecap="round" stroke-linejoin="round"/>
<path d="M1440.45 608.65C1440.45 609.032 1440.33 609.405 1440.12 609.722C1439.91 610.04 1439.61 610.288 1439.25 610.434C1438.9 610.58 1438.51 610.618 1438.14 610.544C1437.76 610.469 1437.42 610.285 1437.15 610.015C1436.88 609.745 1436.7 609.401 1436.62 609.026C1436.55 608.652 1436.58 608.263 1436.73 607.911C1436.88 607.558 1437.12 607.256 1437.44 607.044C1437.76 606.832 1438.13 606.718 1438.52 606.718C1439.03 606.718 1439.52 606.922 1439.88 607.284C1440.24 607.646 1440.45 608.137 1440.45 608.65Z" fill="white" stroke="#263238" stroke-width="0.965585" stroke-linecap="round" stroke-linejoin="round"/>
<path d="M1494.66 611.643C1494.66 612.025 1494.55 612.398 1494.34 612.716C1494.13 613.033 1493.82 613.281 1493.47 613.427C1493.12 613.573 1492.73 613.611 1492.36 613.537C1491.98 613.462 1491.64 613.278 1491.37 613.008C1491.1 612.738 1490.91 612.394 1490.84 612.02C1490.76 611.645 1490.8 611.257 1490.95 610.904C1491.09 610.551 1491.34 610.249 1491.66 610.037C1491.98 609.825 1492.35 609.712 1492.73 609.712C1493.25 609.712 1493.74 609.915 1494.1 610.277C1494.46 610.639 1494.66 611.131 1494.66 611.643Z" fill="white" stroke="#263238" stroke-width="0.965585" stroke-linecap="round" stroke-linejoin="round"/>
<path d="M1533.75 643.72C1533.75 643.72 1541.2 646.201 1539.71 654.882C1538.22 663.562 1532.51 663.572 1531.02 663.321C1529.27 662.919 1527.55 662.429 1525.85 661.853C1525.85 661.853 1529.58 657.141 1527.84 651.927C1526.1 646.713 1526.31 643.218 1533.75 643.72Z" fill="white" stroke="#263238" stroke-width="0.965585" stroke-linecap="round" stroke-linejoin="round"/>
<path d="M1496.77 657.122C1497.52 660.174 1499.16 662.934 1501.48 665.059C1505.21 668.294 1512.15 668.786 1512.15 668.786C1510.92 672.001 1508.97 674.889 1506.44 677.225C1502.48 680.702 1498 685.665 1496.79 688.89C1495.57 692.115 1497.75 691.13 1499.27 689.141C1500.79 687.152 1502.75 683.927 1502.75 683.927C1502.75 683.927 1500.76 690.628 1502.75 689.392C1504.74 688.156 1505.97 682.932 1505.97 682.932C1505.97 682.932 1505.97 689.392 1507.46 687.905C1508.95 686.418 1508.7 681.696 1508.7 680.953C1508.7 680.209 1511.43 679.456 1512.92 677.969C1514.42 676.482 1508.2 677.969 1508.2 677.969C1508.2 677.969 1517.14 671.77 1518.63 669.53C1520.12 667.29 1516.39 663.321 1515.4 662.085C1514.42 660.849 1496.77 657.122 1496.77 657.122Z" fill="#CFCFCF" stroke="#263238" stroke-width="0.965585" stroke-linecap="round" stroke-linejoin="round"/>
<path d="M1512.15 668.786C1510.92 672.001 1508.97 674.889 1506.44 677.225C1502.48 680.702 1498 685.665 1496.79 688.89C1495.57 692.115 1497.75 691.13 1499.27 689.141C1500.79 687.152 1502.75 683.927 1502.75 683.927C1502.75 683.927 1500.76 690.628 1502.75 689.392C1504.74 688.156 1505.97 682.932 1505.97 682.932C1505.97 682.932 1505.97 689.392 1507.46 687.905C1508.95 686.418 1508.7 681.696 1508.7 680.953C1508.7 680.209 1511.43 679.456 1512.92 677.969C1514.42 676.482 1508.2 677.969 1508.2 677.969C1508.2 677.969 1517.14 671.77 1518.63 669.53C1519.25 668.564 1518.96 667.357 1518.34 666.141C1514.53 665.165 1512.15 668.786 1512.15 668.786Z" fill="white" stroke="#263238" stroke-width="0.965585" stroke-linecap="round" stroke-linejoin="round"/>
<path d="M1495.81 648.103C1496.57 651.155 1498.22 653.915 1500.53 656.04C1504.25 659.265 1511.2 659.768 1511.2 659.768C1509.97 662.98 1508.02 665.867 1505.5 668.207C1501.53 671.683 1497.06 676.646 1495.84 679.871C1494.63 683.096 1496.81 682.111 1498.32 680.122C1499.84 678.133 1501.8 674.908 1501.8 674.908C1501.8 674.908 1499.82 681.609 1501.8 680.373C1503.78 679.137 1505.02 673.913 1505.02 673.913C1505.02 673.913 1505.02 680.373 1506.52 678.876C1508.02 677.38 1507.76 672.677 1507.76 671.934C1507.76 671.19 1510.49 670.437 1511.98 668.95C1513.46 667.463 1507.26 668.95 1507.26 668.95C1507.26 668.95 1516.2 662.742 1517.69 660.511C1519.19 658.281 1515.45 654.302 1514.46 653.066C1513.46 651.83 1495.81 648.103 1495.81 648.103Z" fill="white" stroke="#263238" stroke-width="0.965585" stroke-linecap="round" stroke-linejoin="round"/>
<path d="M1511.2 659.768C1509.97 662.98 1508.02 665.867 1505.5 668.207C1501.53 671.683 1497.06 676.646 1495.84 679.871C1494.63 683.096 1496.81 682.111 1498.32 680.122C1499.84 678.133 1501.8 674.908 1501.8 674.908C1501.8 674.908 1499.82 681.609 1501.8 680.373C1503.78 679.137 1505.02 673.913 1505.02 673.913C1505.02 673.913 1505.02 680.373 1506.52 678.877C1508.02 677.38 1507.76 672.678 1507.76 671.934C1507.76 671.191 1510.49 670.437 1511.98 668.95C1513.46 667.463 1507.26 668.95 1507.26 668.95C1507.26 668.95 1516.2 662.742 1517.69 660.511C1518.31 659.546 1518.02 658.339 1517.39 657.122C1513.57 656.147 1511.2 659.768 1511.2 659.768Z" fill="white" stroke="#263238" stroke-width="0.965585" stroke-linecap="round" stroke-linejoin="round"/>
<path d="M1497.53 617.436C1497.53 617.436 1489.81 611.643 1484.01 617.755C1478.22 623.867 1481.44 637.395 1485.3 642.86C1489.16 648.325 1507.82 654.776 1519.09 653.81C1530.36 652.844 1538.72 640.61 1538.72 634.17C1538.72 627.73 1533.26 623.23 1529.07 622.911C1524.88 622.593 1516.84 621.299 1516.84 621.299C1516.84 621.299 1501.07 620.333 1497.53 617.436Z" fill="#CFCFCF" stroke="#263238" stroke-width="0.965585" stroke-linecap="round" stroke-linejoin="round"/>
<path d="M1526.82 606.68C1526.82 606.68 1528.2 604.102 1526.72 599.457C1525.24 594.813 1522.08 594.629 1522.08 595.865V597.796C1522.08 597.796 1518.92 594.417 1518.07 595.054C1517.22 595.691 1517.86 599.274 1517.86 599.274C1517.86 599.274 1524.55 600.819 1526.82 606.68Z" fill="#263238" stroke="#263238" stroke-width="0.965585" stroke-linecap="round" stroke-linejoin="round"/>
<path d="M1526.82 606.68C1526.82 606.68 1524.7 600.317 1519.25 598.801C1513.79 597.285 1507.74 599.766 1505.61 602.142C1502.78 605.722 1500.15 609.462 1497.74 613.342C1495.62 616.674 1484.72 621.83 1486.84 623.645C1488.97 625.46 1494.71 622.737 1494.71 622.737C1494.71 622.737 1490.77 628.792 1495.62 627.884C1500.47 626.976 1500.78 624.852 1500.78 624.852C1500.78 624.852 1499.56 632.432 1502.89 631.215C1506.22 629.999 1505.92 627.276 1505.92 627.276C1505.92 627.276 1504.41 634.247 1507.74 634.247C1511.07 634.247 1511.68 629.419 1511.68 629.419C1511.68 629.419 1512.59 635.782 1516.51 634.865C1520.43 633.948 1518.32 630.327 1518.32 630.327C1518.32 630.327 1523.15 634.566 1524.11 632.142C1525.08 629.719 1522.3 625.18 1522.3 625.18C1522.3 625.18 1518.97 617.91 1521.99 614.878C1525.01 611.846 1531.39 610.05 1531.39 610.05L1526.82 606.68Z" fill="#878787" stroke="#263238" stroke-width="0.965585" stroke-linecap="round" stroke-linejoin="round"/>
<path d="M1524.95 611.826C1525.16 612.01 1525.36 612.174 1525.56 612.338C1527.42 611.389 1529.36 610.61 1531.36 610.011L1526.82 606.68C1526.82 606.68 1521.62 608.804 1524.95 611.826Z" fill="#217D4D" stroke="#263238" stroke-width="0.965585" stroke-linecap="round" stroke-linejoin="round"/>
<path d="M1521.4 605.26C1521.4 605.492 1521.34 605.719 1521.21 605.913C1521.08 606.107 1520.9 606.258 1520.68 606.347C1520.47 606.437 1520.23 606.461 1520.01 606.416C1519.78 606.372 1519.57 606.26 1519.41 606.096C1519.24 605.932 1519.13 605.723 1519.09 605.495C1519.04 605.268 1519.07 605.032 1519.16 604.818C1519.24 604.604 1519.4 604.422 1519.59 604.294C1519.78 604.167 1520.01 604.1 1520.24 604.102C1520.55 604.102 1520.84 604.224 1521.06 604.441C1521.28 604.658 1521.4 604.953 1521.4 605.26Z" fill="white" stroke="#263238" stroke-width="0.965585" stroke-linecap="round" stroke-linejoin="round"/>
<path d="M1532.01 649.175C1532.01 649.175 1526.06 651.657 1522.58 648.924C1519.1 646.191 1513.89 641.982 1509.18 641.982C1504.46 641.982 1503.96 645.95 1506.19 647.437C1508.42 648.924 1513.65 652.902 1513.65 652.902C1513.65 652.902 1506.7 653.144 1502.73 649.919C1498.76 646.694 1495.97 640.987 1493.29 641.228C1490.62 641.47 1493.53 646.945 1493.53 646.945C1493.53 646.945 1489.57 642.474 1488.08 644.212C1486.59 645.95 1490.81 651.657 1492.79 654.64C1494.77 657.624 1505.7 661.853 1508.68 662.819C1510.04 663.335 1511.46 663.66 1512.9 663.784C1512.9 663.784 1523.08 662.336 1525.85 661.853C1528.62 661.37 1531.32 660.617 1532.31 656.639C1533.31 652.661 1532.76 649.919 1532.01 649.175Z" fill="white" stroke="#263238" stroke-width="0.965585" stroke-linecap="round" stroke-linejoin="round"/>
<path d="M1493.53 646.945C1493.53 646.945 1497.01 654.389 1502.48 657.363L1493.53 646.945Z" fill="white"/>
<path d="M1493.53 646.945C1493.53 646.945 1497.01 654.389 1502.48 657.363" stroke="#263238" stroke-width="0.965585" stroke-linecap="round" stroke-linejoin="round"/>
<path d="M1420.6 631.679L1367.25 629.265L1369.43 655.094H1369.7C1371.24 660.955 1381.21 665.851 1393.5 666.42C1399.07 666.681 1405.19 666.314 1410.5 664.287C1416.04 662.182 1418.03 656.881 1418.75 651.425C1419.05 649.233 1420.15 631.659 1420.6 631.679Z" fill="#878787" stroke="#263238" stroke-width="0.965585" stroke-linecap="round" stroke-linejoin="round"/>
<path d="M1397.06 640.929C1395.86 640.929 1394.64 640.9 1393.41 640.842C1386.82 640.642 1380.3 639.38 1374.1 637.105C1366.7 634.141 1365.29 630.684 1365.41 628.299C1365.54 625.914 1367.25 622.612 1374.9 620.333C1381.29 618.644 1387.91 617.992 1394.5 618.402C1401.1 618.602 1407.62 619.864 1413.82 622.139C1421.21 625.103 1422.63 628.56 1422.51 630.945C1422.39 633.32 1420.66 636.632 1413.01 638.911C1407.82 640.326 1402.45 641.005 1397.06 640.929ZM1390.78 622.187C1385.77 622.107 1380.78 622.731 1375.95 624.041C1371.06 625.489 1369.26 627.334 1369.19 628.483C1369.11 629.632 1370.75 631.631 1375.47 633.523C1381.28 635.64 1387.39 636.807 1393.57 636.98C1399.74 637.378 1405.93 636.781 1411.91 635.213C1416.8 633.764 1418.6 631.92 1418.67 630.771C1418.73 629.632 1417.11 627.623 1412.39 625.731C1406.57 623.608 1400.46 622.438 1394.27 622.264C1393.09 622.264 1391.93 622.187 1390.78 622.187Z" fill="#878787" stroke="#263238" stroke-width="0.965585" stroke-linecap="round" stroke-linejoin="round"/>
<mask id="mask3_39_425" style="mask-type:luminance" maskUnits="userSpaceOnUse" x="1369" y="606" width="50" height="31">
<path d="M1405.5 608.65C1396.96 606.351 1385.44 606.371 1380.19 608.196C1376.86 609.429 1373.86 611.411 1371.42 613.989L1369.87 627.372C1369.63 627.663 1369.48 628.02 1369.45 628.396C1369.39 629.535 1370.99 631.515 1375.67 633.397C1381.42 635.498 1387.46 636.661 1393.57 636.845C1399.67 637.233 1405.8 636.639 1411.72 635.087C1416.55 633.649 1418.33 631.824 1418.39 630.694L1418.58 617.311C1416.57 616.992 1413.84 610.899 1405.5 608.65Z" fill="white"/>
</mask>
<g mask="url(#mask3_39_425)">
<path d="M1420.34 630.796C1420.58 625.714 1408.95 621.045 1394.37 620.367C1379.79 619.69 1367.78 623.261 1367.54 628.343C1367.3 633.425 1378.93 638.094 1393.51 638.771C1408.09 639.448 1420.1 635.878 1420.34 630.796Z" fill="white" stroke="#263238" stroke-width="0.965585" stroke-linecap="round" stroke-linejoin="round"/>
<path d="M1397.09 630.414C1394.2 632.944 1390.03 632.915 1387.76 630.337C1385.5 627.758 1386 623.577 1388.87 621.077C1391.75 618.576 1399.5 615.438 1401.77 618.016C1404.03 620.594 1399.97 627.874 1397.09 630.414Z" fill="white" stroke="#263238" stroke-width="0.965585" stroke-miterlimit="10"/>
<path d="M1391.64 625.837C1391.64 629.699 1388.86 632.779 1385.42 632.779C1381.98 632.779 1379.2 629.67 1379.2 625.837C1379.2 622.004 1381.99 614.134 1385.42 614.134C1388.85 614.134 1391.64 621.994 1391.64 625.837Z" fill="white" stroke="#263238" stroke-width="0.965585" stroke-miterlimit="10"/>
<path d="M1409.84 629.902C1409.84 633.764 1407.05 636.854 1403.62 636.854C1400.19 636.854 1397.4 633.735 1397.4 629.902C1397.4 626.069 1400.18 618.199 1403.62 618.199C1407.06 618.199 1409.84 626.059 1409.84 629.902Z" fill="white" stroke="#263238" stroke-width="0.965585" stroke-miterlimit="10"/>
<path d="M1401.71 634.923C1401.71 638.785 1398.92 641.875 1395.49 641.875C1392.06 641.875 1389.27 638.756 1389.27 634.923C1389.27 631.09 1392.05 623.23 1395.5 623.23C1398.95 623.23 1401.71 631.08 1401.71 634.923Z" fill="white" stroke="#263238" stroke-width="0.965585" stroke-miterlimit="10"/>
<path d="M1382.57 630.617C1382.57 634.479 1379.79 637.569 1376.35 637.569C1372.91 637.569 1370.13 634.46 1370.13 630.617C1370.13 626.774 1372.91 618.914 1376.35 618.914C1379.79 618.914 1382.57 626.783 1382.57 630.617Z" fill="white" stroke="#263238" stroke-width="0.965585" stroke-miterlimit="10"/>
<path d="M1417.01 630.617C1417.01 634.479 1414.22 637.569 1410.79 637.569C1407.37 637.569 1404.58 634.46 1404.58 630.617C1404.58 626.774 1407.36 618.914 1410.79 618.914C1414.23 618.914 1417.01 626.783 1417.01 630.617Z" fill="white" stroke="#263238" stroke-width="0.965585" stroke-miterlimit="10"/>
<path d="M1388.96 638.544C1386.06 641.084 1381.9 641.045 1379.63 638.467C1377.36 635.889 1377.86 631.708 1380.74 629.207C1383.63 626.706 1391.37 623.568 1393.63 626.146C1395.9 628.724 1391.84 636.005 1388.96 638.544Z" fill="white" stroke="#263238" stroke-width="0.965585" stroke-miterlimit="10"/>
<path d="M1412.68 631.273C1415.34 634.035 1415.5 638.216 1413.02 640.591C1410.55 642.966 1406.38 642.667 1403.73 639.905C1401.07 637.144 1397.6 629.545 1400.09 627.16C1402.57 624.775 1409.98 628.512 1412.68 631.273Z" fill="white" stroke="#263238" stroke-width="0.965585" stroke-miterlimit="10"/>
</g>
<path d="M1420.13 631.853C1419.65 631.854 1419.18 631.675 1418.82 631.35C1418.47 631.024 1418.24 630.577 1418.2 630.095L1417.13 610.986C1416.82 607.472 1415.65 604.089 1413.71 601.139C1411.78 598.188 1409.14 595.763 1406.04 594.079L1403.95 592.939C1400.94 591.297 1397.58 590.401 1394.15 590.325C1390.72 590.249 1387.33 590.996 1384.25 592.504C1381.17 594.012 1378.5 596.236 1376.46 598.99C1374.42 601.744 1373.07 604.947 1372.52 608.331L1369.39 627.643C1369.28 628.121 1368.99 628.539 1368.58 628.813C1368.18 629.087 1367.68 629.195 1367.2 629.117C1366.71 629.038 1366.28 628.778 1365.98 628.389C1365.68 628.001 1365.54 627.513 1365.58 627.025L1368.71 607.713C1369.36 603.719 1370.95 599.938 1373.36 596.688C1375.77 593.438 1378.92 590.812 1382.56 589.032C1386.19 587.252 1390.2 586.369 1394.24 586.458C1398.29 586.546 1402.25 587.603 1405.8 589.541L1407.9 590.69C1411.56 592.682 1414.67 595.55 1416.96 599.037C1419.24 602.525 1420.63 606.524 1420.99 610.677L1422.05 629.786C1422.1 630.296 1421.94 630.802 1421.61 631.195C1421.28 631.588 1420.81 631.835 1420.3 631.882L1420.13 631.853Z" fill="#878787" stroke="#263238" stroke-width="0.965585" stroke-linecap="round" stroke-linejoin="round"/>
<path d="M1376.19 667.328C1376.19 667.328 1377.03 667.454 1381.85 668.101C1386.68 668.748 1394.41 666.015 1395.5 662.172C1396.07 660.241 1391.95 660.241 1389.06 661.535C1386.16 662.829 1376.19 667.328 1376.19 667.328Z" fill="white" stroke="#263238" stroke-width="0.965585" stroke-linecap="round" stroke-linejoin="round"/>
<path d="M1365.25 642.542C1365.25 642.542 1370.71 640.292 1375.87 643.189C1379.37 645.267 1382.61 647.749 1385.52 650.585C1385.52 650.585 1387.13 652.516 1383.91 654.447C1380.7 656.378 1380.05 655.094 1377.47 653.163C1375.65 651.929 1373.55 651.157 1371.36 650.913C1371.36 650.913 1377.8 657.025 1380.05 658.957C1382.3 660.888 1388.74 657.344 1390.67 659.922C1392.6 662.5 1391.64 663.466 1386.16 665.069C1380.69 666.672 1375.54 669.578 1371.04 666.681C1366.54 663.784 1355.91 651.879 1354.63 648.016C1353.34 644.154 1360.74 639.964 1365.25 642.542Z" fill="white" stroke="#263238" stroke-width="0.965585" stroke-linecap="round" stroke-linejoin="round"/>
<path d="M1503.36 150.931C1498.38 148.207 1496.11 150.474 1494.29 148.207C1492.47 145.941 1499.28 140.047 1485.69 134.163C1485.69 134.163 1484.78 121.469 1466.19 121.012C1447.61 120.554 1452.6 133.737 1447.57 136.908C1442.55 140.079 1441.19 135.099 1436.24 138.27C1431.29 141.44 1433.52 147.846 1429.44 148.697C1425.37 149.548 1419.92 144.611 1414.94 147.793C1409.96 150.974 1409.95 153.676 1407.68 153.676C1405.42 153.676 1400.89 151.868 1398.17 153.676C1395.46 155.485 1392.28 157.762 1392.28 157.762H1506.99C1506.99 157.762 1508.35 153.676 1503.36 150.931Z" stroke="#263238" stroke-width="1.064" stroke-linecap="round" stroke-linejoin="round"/>
<path d="M1435.53 149.101C1434.88 149.465 1434.2 149.785 1433.51 150.059" stroke="#263238" stroke-width="1.064" stroke-linecap="round" stroke-linejoin="round"/>
<path d="M1460.06 127.928C1458.94 128.431 1457.95 129.195 1457.18 130.157C1456.41 131.12 1455.88 132.252 1455.64 133.46C1454.81 137.61 1452.87 140.376 1450.66 140.653C1448.45 140.93 1440.15 140.1 1438.76 143.143C1438.39 144.034 1438.13 144.966 1437.99 145.92" stroke="#263238" stroke-width="1.064" stroke-linecap="round" stroke-linejoin="round"/>
<path d="M1445.22 183.543C1442.6 182.117 1441.42 183.309 1440.47 182.117C1439.51 180.925 1443.08 177.861 1435.95 174.754C1435.95 174.754 1435.48 168.094 1425.74 167.86C1416 167.625 1418.61 174.51 1415.99 176.18C1413.38 177.85 1412.66 175.222 1410.06 176.893C1407.45 178.563 1408.63 181.883 1406.49 182.351C1404.35 182.819 1401.49 180.223 1398.88 181.883C1396.28 183.543 1396.27 184.969 1395.08 184.969C1393.88 184.969 1391.51 184.022 1390.09 184.969C1388.66 185.916 1387 187.097 1387 187.097H1447.13C1447.13 187.097 1447.84 184.979 1445.22 183.543Z" stroke="#263238" stroke-width="1.064" stroke-linecap="round" stroke-linejoin="round"/>
<path d="M1409.65 182.564C1409.31 182.76 1408.96 182.927 1408.59 183.064" stroke="#263238" stroke-width="1.064" stroke-linecap="round" stroke-linejoin="round"/>
<path d="M1422.52 171.466C1421.93 171.727 1421.41 172.124 1421.01 172.623C1420.61 173.123 1420.33 173.711 1420.2 174.339C1419.76 176.467 1418.75 177.968 1417.59 178.116C1416.43 178.265 1412.08 177.829 1411.35 179.425C1411.16 179.89 1411.02 180.375 1410.94 180.872" stroke="#263238" stroke-width="1.064" stroke-linecap="round" stroke-linejoin="round"/>
<path d="M982.359 140.931C977.379 138.207 975.113 140.474 973.294 138.207C971.474 135.941 978.284 130.047 964.686 124.163C964.686 124.163 963.782 111.469 945.193 111.012C926.605 110.554 931.596 123.737 926.573 126.908C921.551 130.079 920.189 125.099 915.242 128.27C910.294 131.44 912.518 137.846 908.443 138.697C904.368 139.548 898.92 134.611 893.941 137.793C888.961 140.974 888.95 143.676 886.684 143.676C884.418 143.676 879.885 141.868 877.172 143.676C874.459 145.485 871.277 147.762 871.277 147.762H985.987C985.987 147.762 987.349 143.676 982.359 140.931Z" stroke="#263238" stroke-width="1.064" stroke-linecap="round" stroke-linejoin="round"/>
<path d="M914.529 139.101C913.877 139.465 913.202 139.785 912.507 140.059" stroke="#263238" stroke-width="1.064" stroke-linecap="round" stroke-linejoin="round"/>
<path d="M939.065 117.928C937.94 118.431 936.951 119.195 936.181 120.157C935.411 121.12 934.882 122.252 934.639 123.46C933.809 127.61 931.872 130.376 929.659 130.653C927.446 130.93 919.147 130.1 917.764 133.143C917.395 134.034 917.134 134.966 916.987 135.92" stroke="#263238" stroke-width="1.064" stroke-linecap="round" stroke-linejoin="round"/>
<path d="M924.222 173.543C921.605 172.117 920.424 173.309 919.466 172.117C918.508 170.925 922.083 167.861 914.955 164.754C914.955 164.754 914.476 158.094 904.74 157.86C895.005 157.625 897.611 164.51 894.994 166.18C892.377 167.85 891.664 165.222 889.057 166.893C886.45 168.563 887.631 171.883 885.492 172.351C883.354 172.819 880.492 170.223 877.885 171.883C875.278 173.543 875.267 174.969 874.076 174.969C872.884 174.969 870.511 174.022 869.086 174.969C867.66 175.916 866 177.097 866 177.097H926.127C926.127 177.097 926.84 174.979 924.222 173.543Z" stroke="#263238" stroke-width="1.064" stroke-linecap="round" stroke-linejoin="round"/>
<path d="M888.652 172.564C888.312 172.76 887.956 172.927 887.588 173.064" stroke="#263238" stroke-width="1.064" stroke-linecap="round" stroke-linejoin="round"/>
<path d="M901.516 161.466C900.93 161.727 900.414 162.124 900.01 162.623C899.607 163.123 899.328 163.711 899.197 164.339C898.76 166.467 897.75 167.968 896.59 168.116C895.43 168.265 891.078 167.829 890.355 169.425C890.16 169.89 890.021 170.375 889.94 170.872" stroke="#263238" stroke-width="1.064" stroke-linecap="round" stroke-linejoin="round"/>
<path d="M250.359 719.931C245.379 717.207 243.113 719.474 241.294 717.207C239.474 714.941 246.284 709.047 232.686 703.163C232.686 703.163 231.782 690.469 213.193 690.012C194.605 689.554 199.596 702.737 194.573 705.908C189.551 709.079 188.189 704.099 183.242 707.27C178.294 710.44 180.518 716.846 176.443 717.697C172.368 718.548 166.92 713.611 161.941 716.793C156.961 719.974 156.95 722.676 154.684 722.676C152.418 722.676 147.885 720.868 145.172 722.676C142.459 724.485 139.277 726.762 139.277 726.762H253.987C253.987 726.762 255.349 722.676 250.359 719.931Z" stroke="#263238" stroke-width="1.064" stroke-linecap="round" stroke-linejoin="round"/>
<path d="M182.529 718.101C181.877 718.465 181.202 718.785 180.507 719.059" stroke="#263238" stroke-width="1.064" stroke-linecap="round" stroke-linejoin="round"/>
<path d="M207.065 696.928C205.94 697.431 204.951 698.195 204.181 699.157C203.411 700.12 202.882 701.252 202.639 702.46C201.809 706.61 199.872 709.376 197.659 709.653C195.446 709.93 187.147 709.1 185.764 712.143C185.395 713.034 185.134 713.966 184.987 714.92" stroke="#263238" stroke-width="1.064" stroke-linecap="round" stroke-linejoin="round"/>
<path d="M192.222 752.543C189.605 751.117 188.424 752.309 187.466 751.117C186.508 749.926 190.083 746.861 182.955 743.754C182.955 743.754 182.476 737.094 172.74 736.86C163.005 736.626 165.611 743.51 162.994 745.18C160.377 746.851 159.664 744.222 157.057 745.893C154.45 747.563 155.631 750.883 153.492 751.351C151.354 751.819 148.492 749.223 145.885 750.883C143.278 752.543 143.267 753.969 142.076 753.969C140.884 753.969 138.511 753.022 137.086 753.969C135.66 754.916 134 756.097 134 756.097H194.127C194.127 756.097 194.84 753.979 192.222 752.543Z" stroke="#263238" stroke-width="1.064" stroke-linecap="round" stroke-linejoin="round"/>
<path d="M156.653 751.564C156.312 751.76 155.957 751.927 155.589 752.064" stroke="#263238" stroke-width="1.064" stroke-linecap="round" stroke-linejoin="round"/>
<path d="M169.516 740.467C168.93 740.728 168.414 741.124 168.01 741.624C167.607 742.123 167.328 742.711 167.197 743.339C166.76 745.467 165.75 746.968 164.59 747.117C163.43 747.266 159.078 746.829 158.355 748.425C158.16 748.89 158.021 749.375 157.94 749.872" stroke="#263238" stroke-width="1.064" stroke-linecap="round" stroke-linejoin="round"/>
<path d="M680.359 781.931C675.379 779.207 673.113 781.474 671.294 779.207C669.474 776.941 676.284 771.047 662.686 765.163C662.686 765.163 661.782 752.469 643.193 752.012C624.605 751.554 629.596 764.737 624.573 767.908C619.551 771.079 618.189 766.099 613.242 769.27C608.294 772.44 610.518 778.846 606.443 779.697C602.368 780.548 596.92 775.611 591.941 778.793C586.961 781.974 586.95 784.676 584.684 784.676C582.418 784.676 577.885 782.868 575.172 784.676C572.459 786.485 569.277 788.762 569.277 788.762H683.987C683.987 788.762 685.349 784.676 680.359 781.931Z" stroke="#263238" stroke-width="1.064" stroke-linecap="round" stroke-linejoin="round"/>
<path d="M612.529 780.101C611.877 780.465 611.202 780.785 610.507 781.059" stroke="#263238" stroke-width="1.064" stroke-linecap="round" stroke-linejoin="round"/>
<path d="M637.065 758.928C635.94 759.431 634.951 760.195 634.181 761.157C633.411 762.12 632.882 763.252 632.639 764.46C631.809 768.61 629.872 771.376 627.659 771.653C625.446 771.93 617.147 771.1 615.764 774.143C615.395 775.034 615.134 775.966 614.987 776.92" stroke="#263238" stroke-width="1.064" stroke-linecap="round" stroke-linejoin="round"/>
<path d="M622.222 814.543C619.605 813.117 618.424 814.309 617.466 813.117C616.508 811.926 620.083 808.861 612.955 805.754C612.955 805.754 612.476 799.094 602.74 798.86C593.005 798.626 595.611 805.51 592.994 807.18C590.377 808.851 589.664 806.222 587.057 807.893C584.45 809.563 585.631 812.883 583.492 813.351C581.354 813.819 578.492 811.223 575.885 812.883C573.278 814.543 573.267 815.969 572.076 815.969C570.884 815.969 568.511 815.022 567.086 815.969C565.66 816.916 564 818.097 564 818.097H624.127C624.127 818.097 624.84 815.979 622.222 814.543Z" stroke="#263238" stroke-width="1.064" stroke-linecap="round" stroke-linejoin="round"/>
<path d="M586.652 813.564C586.312 813.76 585.956 813.927 585.588 814.064" stroke="#263238" stroke-width="1.064" stroke-linecap="round" stroke-linejoin="round"/>
<path d="M599.516 802.467C598.93 802.728 598.414 803.124 598.01 803.624C597.607 804.123 597.328 804.711 597.197 805.339C596.76 807.467 595.75 808.968 594.59 809.117C593.43 809.266 589.078 808.829 588.355 810.425C588.16 810.89 588.021 811.375 587.94 811.872" stroke="#263238" stroke-width="1.064" stroke-linecap="round" stroke-linejoin="round"/>
<path d="M629.359 61.9313C624.379 59.2075 622.113 61.4738 620.294 59.2075C618.474 56.9411 625.284 51.0466 611.686 45.1627C611.686 45.1627 610.782 32.4691 592.193 32.0116C573.605 31.5541 578.596 44.7371 573.573 47.9078C568.551 51.0785 567.189 46.099 562.242 49.2697C557.294 52.4404 559.518 58.8457 555.443 59.6969C551.368 60.5481 545.92 55.6111 540.941 58.7925C535.961 61.9739 535.95 64.6764 533.684 64.6764C531.418 64.6764 526.885 62.8676 524.172 64.6764C521.459 66.4852 518.277 68.7622 518.277 68.7622H632.987C632.987 68.7622 634.349 64.6764 629.359 61.9313Z" stroke="#263238" stroke-width="1.064" stroke-linecap="round" stroke-linejoin="round"/>
<path d="M561.529 60.1012C560.877 60.4652 560.202 60.7851 559.507 61.0588" stroke="#263238" stroke-width="1.064" stroke-linecap="round" stroke-linejoin="round"/>
<path d="M586.065 38.9276C584.94 39.4305 583.951 40.195 583.181 41.1574C582.411 42.1198 581.882 43.2523 581.639 44.4604C580.809 48.61 578.872 51.3764 576.659 51.653C574.446 51.9297 566.147 51.0998 564.764 54.1428C564.395 55.0342 564.134 55.9665 563.987 56.9199" stroke="#263238" stroke-width="1.064" stroke-linecap="round" stroke-linejoin="round"/>
<path d="M571.222 94.5429C568.605 93.1171 567.424 94.3088 566.466 93.1171C565.508 91.9254 569.083 88.8611 561.955 85.7542C561.955 85.7542 561.476 79.0936 551.74 78.8595C542.005 78.6254 544.611 85.5095 541.994 87.18C539.377 88.8505 538.664 86.2224 536.057 87.8929C533.45 89.5634 534.631 92.883 532.492 93.3512C530.354 93.8194 527.492 91.2232 524.885 92.883C522.278 94.5429 522.267 95.9686 521.076 95.9686C519.884 95.9686 517.511 95.0217 516.086 95.9686C514.66 96.9156 513 98.0966 513 98.0966H573.127C573.127 98.0966 573.84 95.9793 571.222 94.5429Z" stroke="#263238" stroke-width="1.064" stroke-linecap="round" stroke-linejoin="round"/>
<path d="M535.652 93.564C535.312 93.76 534.956 93.9273 534.588 94.0641" stroke="#263238" stroke-width="1.064" stroke-linecap="round" stroke-linejoin="round"/>
<path d="M548.516 82.4665C547.93 82.7275 547.414 83.124 547.01 83.6235C546.607 84.1229 546.328 84.711 546.197 85.3393C545.76 87.4673 544.75 88.9675 543.59 89.1165C542.43 89.2655 538.078 88.8292 537.355 90.4252C537.16 90.8895 537.021 91.3752 536.94 91.8722" stroke="#263238" stroke-width="1.064" stroke-linecap="round" stroke-linejoin="round"/>
<path d="M1844.36 315.931C1839.38 313.207 1837.11 315.474 1835.29 313.207C1833.47 310.941 1840.28 305.047 1826.69 299.163C1826.69 299.163 1825.78 286.469 1807.19 286.012C1788.61 285.554 1793.6 298.737 1788.57 301.908C1783.55 305.079 1782.19 300.099 1777.24 303.27C1772.29 306.44 1774.52 312.846 1770.44 313.697C1766.37 314.548 1760.92 309.611 1755.94 312.793C1750.96 315.974 1750.95 318.676 1748.68 318.676C1746.42 318.676 1741.89 316.868 1739.17 318.676C1736.46 320.485 1733.28 322.762 1733.28 322.762H1847.99C1847.99 322.762 1849.35 318.676 1844.36 315.931Z" stroke="#263238" stroke-width="1.064" stroke-linecap="round" stroke-linejoin="round"/>
<path d="M1776.53 314.101C1775.88 314.465 1775.2 314.785 1774.51 315.059" stroke="#263238" stroke-width="1.064" stroke-linecap="round" stroke-linejoin="round"/>
<path d="M1801.06 292.928C1799.94 293.431 1798.95 294.195 1798.18 295.157C1797.41 296.12 1796.88 297.252 1796.64 298.46C1795.81 302.61 1793.87 305.376 1791.66 305.653C1789.45 305.93 1781.15 305.1 1779.76 308.143C1779.39 309.034 1779.13 309.966 1778.99 310.92" stroke="#263238" stroke-width="1.064" stroke-linecap="round" stroke-linejoin="round"/>
<path d="M1786.22 348.543C1783.6 347.117 1782.42 348.309 1781.47 347.117C1780.51 345.926 1784.08 342.861 1776.95 339.754C1776.95 339.754 1776.48 333.094 1766.74 332.86C1757 332.626 1759.61 339.51 1756.99 341.18C1754.38 342.851 1753.66 340.222 1751.06 341.893C1748.45 343.563 1749.63 346.883 1747.49 347.351C1745.35 347.819 1742.49 345.223 1739.88 346.883C1737.28 348.543 1737.27 349.969 1736.08 349.969C1734.88 349.969 1732.51 349.022 1731.09 349.969C1729.66 350.916 1728 352.097 1728 352.097H1788.13C1788.13 352.097 1788.84 349.979 1786.22 348.543Z" stroke="#263238" stroke-width="1.064" stroke-linecap="round" stroke-linejoin="round"/>
<path d="M1750.65 347.564C1750.31 347.76 1749.96 347.927 1749.59 348.064" stroke="#263238" stroke-width="1.064" stroke-linecap="round" stroke-linejoin="round"/>
<path d="M1763.52 336.467C1762.93 336.728 1762.41 337.124 1762.01 337.624C1761.61 338.123 1761.33 338.711 1761.2 339.339C1760.76 341.467 1759.75 342.968 1758.59 343.117C1757.43 343.266 1753.08 342.829 1752.35 344.425C1752.16 344.89 1752.02 345.375 1751.94 345.872" stroke="#263238" stroke-width="1.064" stroke-linecap="round" stroke-linejoin="round"/>
</g>
<defs>
<clipPath id="clip0_39_425">
<rect width="1875" height="856" fill="white"/>
</clipPath>
</defs>
</svg>
